<svg width="33" height="32" viewBox="0 0 33 32" fill="none" xmlns="http://www.w3.org/2000/svg">
<path d="M4.99322 5C4.31821 5 3.771 5.54721 3.771 6.22222C3.771 6.89724 4.31821 7.44444 4.99322 7.44444H27.8081C28.4831 7.44444 29.0304 6.89724 29.0304 6.22222C29.0304 5.54721 28.4831 5 27.8081 5H4.99322Z" fill="#3B5249"/>
<path d="M4.99322 14.7778C4.31821 14.7778 3.771 15.325 3.771 16C3.771 16.675 4.31821 17.2222 4.99322 17.2222H27.8081C28.4831 17.2222 29.0304 16.675 29.0304 16C29.0304 15.325 28.4831 14.7778 27.8081 14.7778H4.99322Z" fill="#3B5249"/>
<path d="M4.99322 24.5556C4.31821 24.5556 3.771 25.1028 3.771 25.7778C3.771 26.4528 4.31821 27 4.99322 27H27.8081C28.4831 27 29.0304 26.4528 29.0304 25.7778C29.0304 25.1028 28.4831 24.5556 27.8081 24.5556H4.99322Z" fill="#3B5249"/>
</svg>
