<svg width="58" height="60" viewBox="0 0 58 60" fill="none" xmlns="http://www.w3.org/2000/svg">
<g clip-path="url(#clip0_133_2804)">
<path fill-rule="evenodd" clip-rule="evenodd" d="M43.1824 20.4591C44.4611 21.9345 44.4611 24.0984 43.084 25.4755C43.7725 26.2623 44.166 27.1476 44.166 28.2296V56.0656C44.166 58.2296 42.3955 60.0984 40.1332 60.0984H19.7725C17.6086 60.0984 15.7397 58.3279 15.7397 56.0656V28.2296C15.7397 27.1476 16.1332 26.164 16.8217 25.4755C15.4447 24.0984 15.4447 21.9345 16.7234 20.4591C15.4447 18.9837 15.4447 16.8197 16.7234 15.4427C16.5266 14.7541 16.625 13.9673 17.1168 13.4755L22.5266 6.98365C22.0348 6.49185 21.8381 5.90169 21.8381 5.21316V3.34431C21.8381 1.8689 23.0184 0.59021 24.5922 0.59021H35.2152C36.6906 0.59021 38.0676 1.77054 38.0676 3.34431V5.21316C38.0676 5.90169 37.6742 6.49185 37.2807 6.98365L42.7889 13.4755C43.2807 13.9673 43.3791 14.7541 43.1824 15.4427C44.4611 16.8197 44.5594 18.9837 43.1824 20.4591ZM40.4283 21.6394H19.2807C18.5922 21.6394 18.002 22.2296 18.002 22.9181C18.002 23.6066 18.5922 24.1968 19.2807 24.1968C21.543 24.1968 36.3955 24.1968 40.4283 24.1968C41.1168 24.1968 41.707 23.6066 41.707 22.9181C41.707 22.2296 41.2152 21.7378 40.4283 21.6394ZM18.1988 29.1148H41.707V28.2296C41.707 27.3443 41.0184 26.6558 40.1332 26.6558H19.7725C18.8873 26.6558 18.1988 27.3443 18.1988 28.2296V29.1148ZM40.5266 19.1804C41.2152 19.1804 41.8053 18.5902 41.8053 17.9017C41.8053 17.2132 41.2152 16.623 40.5266 16.623H19.3791C18.6906 16.623 18.1004 17.2132 18.1004 17.9017C18.1004 18.5902 18.6906 19.1804 19.3791 19.1804H40.5266ZM24.3955 5.21316C24.3955 5.40988 24.4938 5.50824 24.6906 5.50824H35.2152C35.4119 5.50824 35.5102 5.40988 35.5102 5.21316V3.34431C35.5102 3.14759 35.4119 3.04923 35.2152 3.04923H24.6906C24.4938 3.04923 24.3955 3.14759 24.3955 3.34431V5.21316ZM19.5758 14.2623H40.3299L34.9201 7.96726H24.9856L19.5758 14.2623ZM41.8053 56.164V55.2787H21.9365C21.2479 55.2787 20.6578 54.6886 20.6578 54C20.6578 53.3115 21.2479 52.7214 21.9365 52.7214H41.8053V31.6722H18.1988V56.0656C18.1988 56.9509 18.8873 57.6394 19.7725 57.6394H40.0348C40.9201 57.6394 41.6086 56.9509 41.8053 56.164Z" fill="#171717"/>
<path d="M38.068 48.9836H33.0516C32.3631 48.9836 31.7729 49.5738 31.7729 50.2623C31.7729 50.9509 32.3631 51.541 33.0516 51.541H38.068C38.7566 51.541 39.3467 50.9509 39.3467 50.2623C39.2484 49.4754 38.7566 48.9836 38.068 48.9836Z" fill="#171717"/>
<path d="M25.5761 47.705H38.0679C38.7564 47.705 39.3465 47.1148 39.3465 46.4263C39.3465 45.7377 38.7564 45.1476 38.0679 45.1476H25.5761C24.8875 45.1476 24.2974 45.7377 24.2974 46.4263C24.2974 47.1148 24.8875 47.705 25.5761 47.705Z" fill="#171717"/>
<path d="M38.068 41.5082H33.0516C32.3631 41.5082 31.7729 42.0983 31.7729 42.7869C31.7729 43.5738 32.3631 44.1639 33.0516 44.1639H38.068C38.7566 44.1639 39.3467 43.5738 39.3467 42.7869C39.3467 42.0983 38.7566 41.5082 38.068 41.5082Z" fill="#171717"/>
<path d="M25.5761 40.2295H38.0679C38.7564 40.2295 39.3465 39.6394 39.3465 38.9508C39.3465 38.2623 38.7564 37.7705 38.0679 37.7705H25.5761C24.8875 37.7705 24.2974 38.3607 24.2974 39.0492C24.2974 39.7377 24.8875 40.2295 25.5761 40.2295Z" fill="#171717"/>
<path fill-rule="evenodd" clip-rule="evenodd" d="M8.26469 47.8033C8.26469 49.8688 6.59256 51.541 4.52698 51.541C2.46141 51.541 0.690918 49.8688 0.690918 47.8033C0.690918 45.7377 2.46141 44.0656 4.52698 44.0656C6.59256 44.0656 8.26469 45.7377 8.26469 47.8033ZM5.80567 47.7049C5.80567 47.0164 5.21551 46.4262 4.52698 46.4262C3.83846 46.4262 3.24829 47.0164 3.24829 47.7049C3.24829 48.3934 3.83846 48.9836 4.52698 48.9836C5.21551 48.9836 5.80567 48.3934 5.80567 47.7049Z" fill="#171717"/>
<path fill-rule="evenodd" clip-rule="evenodd" d="M51.6414 30.295C48.7889 30.295 46.625 28.1311 46.625 25.377C46.625 22.6229 48.7889 20.459 51.6414 20.459C54.3955 20.459 56.5594 22.6229 56.5594 25.377C56.5594 28.1311 54.3955 30.295 51.6414 30.295ZM54.1004 25.377C54.1004 24 53.0184 22.918 51.6414 22.918C50.2643 22.918 49.084 24 49.084 25.377C49.084 26.7541 50.2643 27.836 51.6414 27.836C53.0184 27.836 54.1004 26.7541 54.1004 25.377Z" fill="#171717"/>
<path fill-rule="evenodd" clip-rule="evenodd" d="M12.0023 11.8033C12.0023 13.8688 10.3301 15.541 8.26456 15.541C6.19899 15.541 4.52686 13.8688 4.52686 11.8033C4.52686 9.73768 6.19899 8.06555 8.26456 8.06555C10.2318 8.06555 12.0023 9.73768 12.0023 11.8033ZM9.54325 11.7049C9.54325 11.0164 8.95308 10.4262 8.26456 10.4262C7.57604 10.4262 6.98587 11.0164 6.98587 11.7049C6.98587 12.3934 7.57604 12.9836 8.26456 12.9836C8.95308 12.9836 9.44489 12.3934 9.54325 11.7049Z" fill="#171717"/>
<path d="M54.1005 52.6229C54.789 52.6229 55.3792 53.2131 55.3792 53.9016C55.3792 54.6885 54.789 55.1803 54.1005 55.1803C53.4119 55.1803 52.8218 54.6885 52.8218 53.9016C52.8218 53.2131 53.4119 52.6229 54.1005 52.6229Z" fill="#171717"/>
<path d="M13.1825 50.1639C13.9694 50.1639 14.5595 50.7541 14.5595 51.4426C14.5595 52.1312 13.9694 52.7213 13.1825 52.7213C12.494 52.7213 11.9038 52.1312 11.9038 51.4426C11.9038 50.7541 12.494 50.1639 13.1825 50.1639Z" fill="#171717"/>
<path d="M6.98572 29.0164C7.67424 29.0164 8.26441 29.6065 8.26441 30.295C8.26441 31.0819 7.67424 31.6721 6.98572 31.6721C6.2972 31.6721 5.70703 31.0819 5.70703 30.295C5.70703 29.6065 6.2972 29.0164 6.98572 29.0164Z" fill="#171717"/>
<path d="M47.9037 9.24585C48.6906 9.24585 49.1824 9.83601 49.1824 10.5245C49.1824 11.2131 48.6906 11.8032 47.9037 11.8032C47.2152 11.8032 46.625 11.2131 46.625 10.5245C46.625 9.83601 47.2152 9.24585 47.9037 9.24585Z" fill="#171717"/>
</g>
<defs>
<clipPath id="clip0_133_2804">
<rect width="57.0492" height="60" fill="white" transform="translate(0.100586)"/>
</clipPath>
</defs>
</svg>
