<svg width="54" height="60" viewBox="0 0 54 60" fill="none" xmlns="http://www.w3.org/2000/svg">
<g clip-path="url(#clip0_133_2787)">
<path fill-rule="evenodd" clip-rule="evenodd" d="M52.5021 1.32203V58.4746C52.5021 59.1864 51.8919 59.7966 51.18 59.7966C50.4682 59.7966 49.858 59.1864 49.858 58.4746V2.54237H32.0614C33.5868 5.18644 32.4682 8.54237 29.6207 9.76271L35.7224 20.8475C38.2648 23.0847 39.7902 26.339 39.7902 29.8983C39.7902 49.6271 39.8919 48.4068 39.7902 48.6102C39.3834 54.9153 34.0953 59.7966 27.7902 59.7966C21.0783 59.7966 15.6885 54.3051 15.6885 47.6949V30C15.6885 26.339 17.3156 23.1864 19.7563 20.9492L25.858 9.86441C23.0105 8.74576 21.8919 5.28814 23.4173 2.64407H13.2478C12.536 2.64407 11.9258 2.0339 11.9258 1.32203C11.9258 0.610169 12.536 0 13.2478 0H51.3834C52.0953 0 52.6037 0.610169 52.5021 1.32203ZM24.0275 18.3051C24.841 18.1017 25.6546 17.8983 26.5698 17.7966V13.8305L24.0275 18.3051ZM27.7902 20.339C23.7224 20.339 20.1631 23.0847 18.841 26.7458H33.5868C34.2987 26.7458 34.9088 27.3559 34.9088 28.0678C34.9088 28.7797 34.2987 29.3898 33.5868 29.3898H18.3326C18.3326 30 18.3326 28.9831 18.3326 47.7966C18.3326 53.0847 22.6037 57.3559 27.8919 57.3559C32.4682 57.3559 36.3326 54.1017 37.2478 49.7288H23.4173C22.7054 49.7288 22.0953 49.1186 22.0953 48.4068C22.0953 47.6949 22.7054 47.0847 23.4173 47.0847H37.3495V29.8983C37.3495 24.6102 33.0783 20.339 27.7902 20.339ZM31.6546 18.5085L29.1122 13.9322V17.8983C30.0275 18 30.841 18.2034 31.6546 18.5085ZM27.8919 2.54237C26.4682 2.54237 25.3495 3.66102 25.3495 5.08475C25.3495 6.50847 26.4682 7.62712 27.8919 7.62712C29.3156 7.62712 30.4343 6.50847 30.4343 5.08475C30.4343 3.66102 29.3156 2.54237 27.8919 2.54237Z" fill="black"/>
<path fill-rule="evenodd" clip-rule="evenodd" d="M15.7902 14.6441C15.7902 16.3729 14.3665 17.7967 12.6377 17.7967C10.9088 17.7967 9.48511 16.3729 9.48511 14.6441C9.48511 12.9153 10.9088 11.4916 12.6377 11.4916C14.3665 11.4916 15.7902 12.9153 15.7902 14.6441ZM13.2478 14.6441C13.2478 14.339 12.9427 14.034 12.6377 14.034C12.3326 14.034 12.0275 14.339 12.0275 14.6441C12.0275 14.9492 12.3326 15.2543 12.6377 15.2543C12.9427 15.2543 13.2478 14.9492 13.2478 14.6441Z" fill="black"/>
<path fill-rule="evenodd" clip-rule="evenodd" d="M48.8412 37.5255C48.8412 39.2543 47.4175 40.678 45.6887 40.678C43.9599 40.678 42.5361 39.2543 42.5361 37.5255C42.5361 35.7967 43.9599 34.3729 45.6887 34.3729C47.4175 34.3729 48.8412 35.7967 48.8412 37.5255ZM46.2988 37.5255C46.2988 37.2204 45.9938 36.9153 45.6887 36.9153C45.3836 36.9153 45.0785 37.2204 45.0785 37.5255C45.0785 37.8306 45.3836 38.1356 45.6887 38.1356C45.9938 38.1356 46.2988 37.8306 46.2988 37.5255Z" fill="black"/>
<path fill-rule="evenodd" clip-rule="evenodd" d="M9.48516 45.8644C9.48516 48 7.75635 49.7288 5.62075 49.7288C3.48516 49.7288 1.75635 48 1.75635 45.8644C1.75635 43.7288 3.48516 42 5.62075 42C7.65465 42 9.48516 43.7288 9.48516 45.8644ZM6.94279 45.7627C6.94279 45.0508 6.33262 44.4407 5.62075 44.4407C4.90889 44.4407 4.29872 45.0508 4.29872 45.7627C4.29872 46.4746 4.90889 47.0847 5.62075 47.0847C6.33262 47.0847 6.84109 46.4746 6.94279 45.7627Z" fill="black"/>
<path d="M1.75636 24.1017C2.46822 24.1017 3.07839 24.6102 3.07839 25.4237C3.07839 26.1356 2.46822 26.7458 1.75636 26.7458C0.942801 26.7458 0.434326 26.1356 0.434326 25.4237C0.434326 24.6102 0.942801 24.1017 1.75636 24.1017Z" fill="black"/>
<path d="M42.4343 17.7966C43.1462 17.7966 43.7564 18.3051 43.7564 19.1187C43.7564 19.8305 43.1462 20.4407 42.4343 20.4407C41.6208 20.4407 41.1123 19.8305 41.1123 19.1187C41.1123 18.3051 41.6208 17.7966 42.4343 17.7966Z" fill="black"/>
<path d="M22.0952 31.7288C22.8071 31.7288 23.4173 32.2372 23.4173 33.0508C23.4173 33.7627 22.8071 34.3728 22.0952 34.3728C21.2817 34.3728 20.7732 33.7627 20.7732 33.0508C20.7732 32.2372 21.2817 31.7288 22.0952 31.7288Z" fill="black"/>
<path d="M22.0952 35.5933C22.8071 35.5933 23.4173 36.1017 23.4173 36.9153C23.4173 37.6272 22.8071 38.2373 22.0952 38.2373C21.2817 38.2373 20.7732 37.6272 20.7732 36.9153C20.7732 36.1017 21.2817 35.5933 22.0952 35.5933Z" fill="black"/>
<path d="M22.0952 39.356C22.8071 39.356 23.4173 39.8644 23.4173 40.678C23.4173 41.3899 22.8071 42 22.0952 42C21.2817 42 20.7732 41.3899 20.7732 40.678C20.7732 39.8644 21.2817 39.356 22.0952 39.356Z" fill="black"/>
<path d="M22.0952 43.2203C22.8071 43.2203 23.4173 43.7288 23.4173 44.5424C23.4173 45.2542 22.8071 45.8644 22.0952 45.8644C21.2817 45.8644 20.7732 45.2542 20.7732 44.5424C20.7732 43.7288 21.2817 43.2203 22.0952 43.2203Z" fill="black"/>
<path d="M46.2986 49.5254C47.0105 49.5254 47.6206 50.0339 47.6206 50.8474C47.6206 51.5593 47.0105 52.1695 46.2986 52.1695C45.485 52.1695 44.9766 51.5593 44.9766 50.8474C44.9766 50.0339 45.485 49.5254 46.2986 49.5254Z" fill="black"/>
<path d="M11.9258 53.3899C12.6377 53.3899 13.2478 53.8984 13.2478 54.7119C13.2478 55.4238 12.6377 56.034 11.9258 56.034C11.1122 56.034 10.6038 55.4238 10.6038 54.7119C10.6038 53.8984 11.1122 53.3899 11.9258 53.3899Z" fill="black"/>
</g>
<defs>
<clipPath id="clip0_133_2787">
<rect width="52.8814" height="60" fill="white" transform="translate(0.434326)"/>
</clipPath>
</defs>
</svg>
