<svg width="67" height="60" viewBox="0 0 67 60" fill="none" xmlns="http://www.w3.org/2000/svg">
<g clip-path="url(#clip0_133_2821)">
<path d="M14.8298 32.4C15.7025 32.4 16.248 33.0546 16.248 33.8182C16.248 34.5818 15.7025 35.2364 14.8298 35.2364C14.0662 35.2364 13.4116 34.5818 13.4116 33.8182C13.4116 33.0546 14.0662 32.4 14.8298 32.4Z" fill="#171717"/>
<path d="M16.2478 15.9272C17.1205 15.9272 17.775 16.5818 17.775 17.3454C17.775 18.1091 17.1205 18.7636 16.2478 18.7636C15.4841 18.7636 14.8296 18.1091 14.8296 17.3454C14.8296 16.5818 15.4841 15.9272 16.2478 15.9272Z" fill="#171717"/>
<path d="M52.03 24.1091C52.7936 24.1091 53.4482 24.7637 53.4482 25.5273C53.4482 26.4 52.7936 27.0546 52.03 27.0546C51.2664 27.0546 50.6118 26.4 50.6118 25.5273C50.6118 24.7637 51.2664 24.1091 52.03 24.1091Z" fill="#171717"/>
<path d="M49.3025 42.1091C50.0661 42.1091 50.7206 42.7637 50.7206 43.5273C50.7206 44.291 50.0661 44.9455 49.3025 44.9455C48.5388 44.9455 47.8843 44.291 47.8843 43.5273C47.8843 42.7637 48.5388 42.1091 49.3025 42.1091Z" fill="#171717"/>
<path fill-rule="evenodd" clip-rule="evenodd" d="M65.666 2.29086V55.2C65.666 57.8181 63.4842 60 60.866 60C58.2478 60 55.9569 57.8181 55.9569 55.2V3.59995H46.3569V18.109C46.3569 20.7272 44.2842 22.8 41.5569 22.8V42.7636C41.5569 45.3818 39.3751 47.5636 36.7569 47.5636C35.4478 47.5636 34.2478 47.0181 33.3751 46.1454C32.5024 47.0181 31.3024 47.5636 29.8842 47.5636C27.266 47.5636 25.0842 45.3818 25.0842 42.7636V22.8C22.466 22.8 20.3933 20.7272 20.3933 18.109V3.59995H10.6842V55.2C10.6842 57.8181 8.50237 60 5.88419 60C3.15692 60 0.975098 57.8181 0.975098 55.2V2.29086C0.975098 1.52723 1.62964 0.872681 2.39328 0.872681C5.22964 0.872681 58.6842 0.872681 64.3569 0.872681C65.1206 0.872681 65.7751 1.52723 65.666 2.29086ZM43.9569 18.109V3.59995H42.4296V13.9636C42.4296 16.5818 40.3569 18.6545 37.7387 18.6545H29.3387C26.7206 18.6545 24.6478 16.5818 24.6478 13.9636V3.59995H23.2296V18.109C23.2296 19.2 24.1024 20.0727 25.1933 20.0727C27.266 20.0727 39.266 20.0727 41.7751 20.0727C42.866 20.0727 43.8478 19.2 43.8478 18.109H43.9569ZM39.0478 13.2C39.0478 14.2181 38.8296 15.1272 38.3933 15.9272C39.1569 15.709 39.7024 14.9454 39.7024 14.0727V3.70904H27.266V14.0727C27.266 14.9454 27.8115 15.709 28.5751 15.9272C28.1387 15.1272 27.9206 14.2181 27.9206 13.2C27.9206 10.1454 30.3206 7.74541 33.4842 7.74541C36.5387 7.74541 38.9387 10.1454 39.0478 13.2ZM8.06601 3.59995H3.92055V55.2C3.92055 56.2909 4.79328 57.2727 5.99328 57.2727C7.19328 57.2727 8.06601 56.2909 8.06601 55.2V3.59995ZM38.7206 42.8727V22.8H27.7024V42.8727C27.7024 44.0727 28.5751 44.9454 29.7751 44.9454C31.0842 44.9454 31.9569 43.9636 31.9569 42.8727V32.509C31.9569 31.7454 32.6115 31.0909 33.3751 31.0909C34.1387 31.0909 34.7933 31.7454 34.7933 32.509V42.8727C34.7933 44.0727 35.666 44.9454 36.866 44.9454C38.066 44.9454 38.9387 43.9636 38.9387 42.8727H38.7206ZM33.4842 16.0363C35.0115 16.0363 36.2115 14.7272 36.2115 13.2C36.2115 11.6727 35.0115 10.4727 33.4842 10.4727C31.9569 10.4727 30.7569 11.6727 30.7569 13.2C30.7569 14.7272 31.9569 16.0363 33.4842 16.0363ZM63.0478 3.59995C61.9569 3.59995 59.2296 3.59995 58.9024 3.59995V55.0909C58.9024 56.2909 59.7751 57.2727 60.9751 57.2727C62.1751 57.2727 63.0478 56.2909 63.0478 55.0909V3.59995Z" fill="#171717"/>
<path fill-rule="evenodd" clip-rule="evenodd" d="M24.5387 51.7091C24.5387 54.1091 22.6841 55.9636 20.3932 55.9636C18.1023 55.9636 16.1387 54.1091 16.1387 51.7091C16.1387 49.4181 18.1023 47.5636 20.3932 47.5636C22.6841 47.5636 24.5387 49.4181 24.5387 51.7091ZM21.8114 51.6C21.8114 50.8363 21.1569 50.1818 20.3932 50.1818C19.6296 50.1818 18.975 50.8363 18.975 51.6C18.975 52.3636 19.6296 53.0181 20.3932 53.0181C21.1569 53.0181 21.8114 52.4727 21.8114 51.6Z" fill="#171717"/>
<path fill-rule="evenodd" clip-rule="evenodd" d="M53.4481 33.9273C53.4481 36.2182 51.5936 38.0728 49.3027 38.0728C47.0118 38.0728 45.1572 36.2182 45.1572 33.9273C45.1572 31.6364 47.0118 29.7819 49.3027 29.7819C51.4845 29.7819 53.4481 31.6364 53.4481 33.9273ZM50.7209 33.8182C50.7209 33.0546 50.0663 32.4 49.3027 32.4C48.539 32.4 47.8845 33.0546 47.8845 33.8182C47.8845 34.5819 48.539 35.2364 49.3027 35.2364C50.0663 35.2364 50.7209 34.5819 50.7209 33.8182Z" fill="#171717"/>
</g>
<defs>
<clipPath id="clip0_133_2821">
<rect width="65.4545" height="60" fill="white" transform="translate(0.647949)"/>
</clipPath>
</defs>
</svg>
