<svg width="24" height="24" viewBox="0 0 24 24" fill="none" xmlns="http://www.w3.org/2000/svg">
<g clip-path="url(#clip0_129_1689)">
<path d="M11.8333 2.37148C14.9057 2.37148 15.2664 2.38517 16.4807 2.43996C17.6038 2.49017 18.211 2.67735 18.6173 2.83714C19.156 3.04714 19.5395 3.29367 19.9412 3.69541C20.343 4.09716 20.5941 4.48065 20.7995 5.01935C20.9547 5.42566 21.1465 6.03285 21.1967 7.15591C21.2515 8.37028 21.2652 8.73094 21.2652 11.8034C21.2652 14.8758 21.2515 15.2365 21.1967 16.4509C21.1465 17.5739 20.9593 18.1811 20.7995 18.5874C20.5895 19.1261 20.343 19.5096 19.9412 19.9114C19.5395 20.3131 19.156 20.5642 18.6173 20.7696C18.211 20.9249 17.6038 21.1166 16.4807 21.1668C15.2664 21.2216 14.9057 21.2353 11.8333 21.2353C8.76081 21.2353 8.40015 21.2216 7.18578 21.1668C6.06271 21.1166 5.45553 20.9294 5.04921 20.7696C4.51051 20.5596 4.12702 20.3131 3.72528 19.9114C3.32353 19.5096 3.07244 19.1261 2.867 18.5874C2.71178 18.1811 2.52003 17.5739 2.46982 16.4509C2.41503 15.2365 2.40134 14.8758 2.40134 11.8034C2.40134 8.73094 2.41503 8.37028 2.46982 7.15591C2.52003 6.03285 2.70721 5.42566 2.867 5.01935C3.077 4.48065 3.32353 4.09716 3.72528 3.69541C4.12702 3.29367 4.51051 3.04258 5.04921 2.83714C5.45553 2.68192 6.06271 2.49017 7.18578 2.43996C8.40015 2.38061 8.76537 2.37148 11.8333 2.37148ZM11.8333 0.298828C8.71059 0.298828 8.31797 0.312524 7.08991 0.367308C5.8664 0.422091 5.03095 0.618399 4.3005 0.901448C3.54266 1.19363 2.90352 1.59081 2.26438 2.22995C1.62523 2.86909 1.23262 3.5128 0.935872 4.26608C0.652823 4.99653 0.456515 5.83198 0.401732 7.06004C0.346948 8.28354 0.333252 8.67616 0.333252 11.7988C0.333252 14.9215 0.346948 15.3141 0.401732 16.5422C0.456515 17.7657 0.652823 18.6011 0.935872 19.3361C1.22805 20.094 1.62523 20.7331 2.26438 21.3723C2.90352 22.0114 3.54723 22.404 4.3005 22.7008C5.03095 22.9838 5.8664 23.1801 7.09447 23.2349C8.32254 23.2897 8.71059 23.3034 11.8378 23.3034C14.9651 23.3034 15.3531 23.2897 16.5812 23.2349C17.8047 23.1801 18.6401 22.9838 19.3751 22.7008C20.133 22.4086 20.7721 22.0114 21.4113 21.3723C22.0504 20.7331 22.443 20.0894 22.7398 19.3361C23.0228 18.6057 23.2191 17.7702 23.2739 16.5422C23.3287 15.3141 23.3424 14.9261 23.3424 11.7988C23.3424 8.67159 23.3287 8.28354 23.2739 7.05548C23.2191 5.83198 23.0228 4.99653 22.7398 4.26151C22.4476 3.50367 22.0504 2.86453 21.4113 2.22539C20.7721 1.58624 20.1284 1.19363 19.3751 0.896883C18.6447 0.613834 17.8092 0.417526 16.5812 0.362742C15.3485 0.312524 14.9559 0.298828 11.8333 0.298828Z" fill="white"/>
<path d="M11.8333 2.37148C14.9057 2.37148 15.2664 2.38517 16.4807 2.43996C17.6038 2.49017 18.211 2.67735 18.6173 2.83714C19.156 3.04714 19.5395 3.29367 19.9412 3.69541C20.343 4.09716 20.5941 4.48065 20.7995 5.01935C20.9547 5.42566 21.1465 6.03285 21.1967 7.15591C21.2515 8.37028 21.2652 8.73094 21.2652 11.8034C21.2652 14.8758 21.2515 15.2365 21.1967 16.4509C21.1465 17.5739 20.9593 18.1811 20.7995 18.5874C20.5895 19.1261 20.343 19.5096 19.9412 19.9114C19.5395 20.3131 19.156 20.5642 18.6173 20.7696C18.211 20.9249 17.6038 21.1166 16.4807 21.1668C15.2664 21.2216 14.9057 21.2353 11.8333 21.2353C8.76081 21.2353 8.40015 21.2216 7.18578 21.1668C6.06271 21.1166 5.45553 20.9294 5.04921 20.7696C4.51051 20.5596 4.12702 20.3131 3.72528 19.9114C3.32353 19.5096 3.07244 19.1261 2.867 18.5874C2.71178 18.1811 2.52003 17.5739 2.46982 16.4509C2.41503 15.2365 2.40134 14.8758 2.40134 11.8034C2.40134 8.73094 2.41503 8.37028 2.46982 7.15591C2.52003 6.03285 2.70721 5.42566 2.867 5.01935C3.077 4.48065 3.32353 4.09716 3.72528 3.69541C4.12702 3.29367 4.51051 3.04258 5.04921 2.83714C5.45553 2.68192 6.06271 2.49017 7.18578 2.43996C8.40015 2.38061 8.76537 2.37148 11.8333 2.37148Z" fill="white"/>
<path d="M11.8333 5.89648C8.57366 5.89648 5.92578 8.53979 5.92578 11.804C5.92578 15.0682 8.56909 17.7115 11.8333 17.7115C15.0975 17.7115 17.7408 15.0682 17.7408 11.804C17.7408 8.53979 15.0975 5.89648 11.8333 5.89648ZM11.8333 15.6343C9.71498 15.6343 7.99843 13.9177 7.99843 11.7994C7.99843 9.68112 9.71498 7.96457 11.8333 7.96457C13.9516 7.96457 15.6681 9.68112 15.6681 11.7994C15.6681 13.9177 13.9516 15.6343 11.8333 15.6343Z" fill="#3B5249"/>
<path d="M17.9734 7.03772C18.7349 7.03772 19.3522 6.42044 19.3522 5.659C19.3522 4.89755 18.7349 4.28027 17.9734 4.28027C17.212 4.28027 16.5947 4.89755 16.5947 5.659C16.5947 6.42044 17.212 7.03772 17.9734 7.03772Z" fill="#3B5249"/>
</g>
<defs>
<clipPath id="clip0_129_1689">
<rect width="23" height="23" fill="white" transform="translate(0.333252 0.298828)"/>
</clipPath>
</defs>
</svg>
