<svg width="24" height="24" viewBox="0 0 24 24" fill="none" xmlns="http://www.w3.org/2000/svg">
<g clip-path="url(#clip0_177_829)">
<path d="M21.6356 0.5H2.03134C1.58105 0.5 1.14919 0.67888 0.830784 0.997288C0.512376 1.3157 0.333496 1.74755 0.333496 2.19785V21.8022C0.333496 22.2524 0.512376 22.6843 0.830784 23.0027C1.14919 23.3211 1.58105 23.5 2.03134 23.5H21.6356C22.0859 23.5 22.5178 23.3211 22.8362 23.0027C23.1546 22.6843 23.3335 22.2524 23.3335 21.8022V2.19785C23.3335 1.74755 23.1546 1.3157 22.8362 0.997288C22.5178 0.67888 22.0859 0.5 21.6356 0.5ZM7.18877 20.0931H3.73079V9.10903H7.18877V20.0931ZM5.45739 7.58688C5.06514 7.58467 4.68233 7.46631 4.35728 7.24675C4.03223 7.02719 3.77951 6.71626 3.631 6.3532C3.4825 5.99015 3.44487 5.59123 3.52286 5.20681C3.60085 4.82239 3.79097 4.46968 4.06923 4.19321C4.34748 3.91673 4.7014 3.72888 5.08632 3.65336C5.47123 3.57784 5.8699 3.61803 6.23199 3.76886C6.59409 3.91969 6.90339 4.17441 7.12086 4.50086C7.33833 4.82731 7.45422 5.21087 7.45391 5.60313C7.45761 5.86574 7.4084 6.12641 7.30922 6.3696C7.21003 6.6128 7.0629 6.83353 6.87658 7.01865C6.69027 7.20377 6.4686 7.34948 6.22478 7.4471C5.98095 7.54473 5.71997 7.59226 5.45739 7.58688ZM19.9346 20.1027H16.4782V14.1019C16.4782 12.3322 15.7259 11.786 14.7548 11.786C13.7294 11.786 12.7231 12.559 12.7231 14.1467V20.1027H9.26516V9.11701H12.5906V10.6392H12.6353C12.9691 9.96354 14.1383 8.80875 15.9224 8.80875C17.8518 8.80875 19.9362 9.95396 19.9362 13.3081L19.9346 20.1027Z" fill="#3B5249"/>
</g>
<defs>
<clipPath id="clip0_177_829">
<rect width="23" height="23" fill="white" transform="translate(0.333496 0.5)"/>
</clipPath>
</defs>
</svg>
