<svg width="164" height="28" viewBox="0 0 164 28" fill="none" xmlns="http://www.w3.org/2000/svg">
<path d="M12.2295 23.2749L8.016 19.0614C5.03569 16.0811 0 18.1878 0 22.4014V27.8995H24.4591V11.0454L12.2295 23.2749Z" fill="#3B5249"/>
<path d="M12.2295 4.72508L16.4431 8.93861C19.4234 11.9189 24.4591 9.81215 24.4591 5.59862V0.100464H0V16.9546L12.2295 4.72508Z" fill="#3B5249"/>
<path d="M43.0877 23.3044C41.7321 23.3044 40.5551 23.0933 39.5567 22.6712C38.5665 22.241 37.7913 21.6282 37.2312 20.8327C36.6711 20.0373 36.3586 19.0916 36.2937 17.9958H39.0454C39.1022 18.6533 39.3132 19.2012 39.6785 19.6395C40.0519 20.0697 40.5349 20.3903 41.1274 20.6014C41.72 20.8124 42.3693 20.918 43.0755 20.918C43.8466 20.918 44.5366 20.7962 45.1454 20.5527C45.7541 20.3092 46.229 19.9683 46.5699 19.5299C46.9189 19.0835 47.0935 18.564 47.0935 17.9715C47.0935 17.4357 46.9392 16.9974 46.6308 16.6565C46.3305 16.3156 45.9205 16.0355 45.4011 15.8164C44.8816 15.5891 44.2971 15.3902 43.6478 15.2198L41.517 14.6353C40.0559 14.2457 38.9033 13.6653 38.0591 12.8942C37.215 12.115 36.7929 11.0963 36.7929 9.83813C36.7929 8.79103 37.0729 7.87785 37.633 7.09861C38.2012 6.31937 38.9683 5.71465 39.9342 5.28444C40.9082 4.84612 42 4.62696 43.2094 4.62696C44.4432 4.62696 45.5269 4.84612 46.4603 5.28444C47.4019 5.71465 48.1446 6.3072 48.6885 7.06209C49.2404 7.80886 49.5286 8.66521 49.5529 9.63114H46.8987C46.8012 8.79508 46.4116 8.14572 45.7298 7.68304C45.0561 7.22037 44.1957 6.98903 43.1486 6.98903C42.418 6.98903 41.7768 7.10673 41.2248 7.34212C40.681 7.5694 40.2589 7.88597 39.9585 8.29182C39.6663 8.69768 39.5202 9.16441 39.5202 9.69202C39.5202 10.2602 39.6947 10.7229 40.0438 11.08C40.4009 11.4372 40.8311 11.7213 41.3344 11.9323C41.8458 12.1353 42.3368 12.3017 42.8076 12.4315L44.5731 12.9064C45.1494 13.0525 45.742 13.2473 46.3507 13.4908C46.9595 13.7343 47.5237 14.055 48.0432 14.4527C48.5708 14.8423 48.9929 15.3293 49.3094 15.9138C49.6341 16.4901 49.7965 17.1882 49.7965 18.008C49.7965 19.0226 49.5326 19.9317 49.005 20.7353C48.4774 21.5308 47.7144 22.1599 46.716 22.6225C45.7176 23.0771 44.5082 23.3044 43.0877 23.3044Z" fill="#3B5249"/>
<path d="M55.5132 23.3044C54.6527 23.3044 53.8735 23.1461 53.1754 22.8295C52.4774 22.5048 51.9254 22.0341 51.5196 21.4172C51.1137 20.8003 50.9108 20.0494 50.9108 19.1647C50.9108 18.3935 51.0569 17.7645 51.3491 17.2774C51.6494 16.7823 52.0512 16.3886 52.5545 16.0964C53.0577 15.8042 53.6178 15.585 54.2347 15.4389C54.8516 15.2928 55.4848 15.1792 56.1341 15.098C56.9539 15.0087 57.6155 14.9316 58.1187 14.8667C58.622 14.8017 58.9873 14.7003 59.2146 14.5623C59.4499 14.4162 59.5676 14.1848 59.5676 13.8683V13.8074C59.5676 13.0363 59.3485 12.4397 58.9102 12.0176C58.48 11.5955 57.8387 11.3844 56.9864 11.3844C56.1016 11.3844 55.3995 11.5792 54.88 11.9689C54.3687 12.3504 54.0156 12.7846 53.8207 13.2717L51.3247 12.6994C51.6251 11.8715 52.0593 11.2059 52.6275 10.7026C53.2038 10.1912 53.8613 9.81784 54.6 9.58244C55.3468 9.34704 56.126 9.22935 56.9377 9.22935C57.4816 9.22935 58.0579 9.29428 58.6667 9.42416C59.2754 9.54591 59.8477 9.77725 60.3834 10.1182C60.9273 10.451 61.3696 10.9299 61.7106 11.5549C62.0515 12.1799 62.2219 12.9876 62.2219 13.9778V23.0122H59.6285V21.1493H59.5311C59.3688 21.4821 59.1131 21.8149 58.7641 22.1477C58.4231 22.4805 57.9848 22.7565 57.4491 22.9756C56.9134 23.1948 56.268 23.3044 55.5132 23.3044ZM56.0854 21.1858C56.8241 21.1858 57.4531 21.0438 57.9726 20.7597C58.4921 20.4675 58.8899 20.086 59.1659 19.6152C59.4418 19.1444 59.5798 18.6452 59.5798 18.1176V16.3521C59.4824 16.4414 59.2998 16.5266 59.0319 16.6078C58.7641 16.689 58.4597 16.7579 58.1187 16.8148C57.7778 16.8716 57.445 16.9243 57.1203 16.973C56.7957 17.0136 56.5237 17.0461 56.3046 17.0705C55.7932 17.1435 55.3265 17.2571 54.9044 17.4114C54.4823 17.5575 54.1414 17.7766 53.8816 18.0689C53.63 18.353 53.5042 18.7304 53.5042 19.2012C53.5042 19.8587 53.7477 20.3538 54.2347 20.6866C54.7217 21.0194 55.3386 21.1858 56.0854 21.1858Z" fill="#3B5249"/>
<path d="M67.1472 14.9397V23.0122H64.5173V9.39981H67.0742V11.6401H67.2568C67.5652 10.9015 68.0482 10.317 68.7057 9.88683C69.3632 9.44851 70.2074 9.22935 71.2382 9.22935C72.1636 9.22935 72.9712 9.42416 73.6612 9.81378C74.3593 10.1953 74.899 10.7675 75.2805 11.5305C75.6702 12.2935 75.865 13.2392 75.865 14.3675V23.0122H73.235V14.684C73.235 13.7019 72.9753 12.9307 72.4558 12.3707C71.9363 11.8025 71.2301 11.5184 70.3372 11.5184C69.7285 11.5184 69.1805 11.6564 68.6935 11.9323C68.2146 12.2002 67.8372 12.5858 67.5612 13.089C67.2852 13.5923 67.1472 14.2092 67.1472 14.9397Z" fill="#3B5249"/>
<path d="M82.0931 23.3044C81.2326 23.3044 80.4534 23.1461 79.7553 22.8295C79.0573 22.5048 78.5053 22.0341 78.0994 21.4172C77.6936 20.8003 77.4907 20.0494 77.4907 19.1647C77.4907 18.3935 77.6368 17.7645 77.929 17.2774C78.2293 16.7823 78.6311 16.3886 79.1344 16.0964C79.6376 15.8042 80.1977 15.585 80.8146 15.4389C81.4315 15.2928 82.0646 15.1792 82.714 15.098C83.5338 15.0087 84.1954 14.9316 84.6986 14.8667C85.2019 14.8017 85.5672 14.7003 85.7944 14.5623C86.0298 14.4162 86.1475 14.1848 86.1475 13.8683V13.8074C86.1475 13.0363 85.9284 12.4397 85.4901 12.0176C85.0599 11.5955 84.4186 11.3844 83.5663 11.3844C82.6815 11.3844 81.9794 11.5792 81.4599 11.9689C80.9485 12.3504 80.5955 12.7846 80.4006 13.2717L77.9046 12.6994C78.205 11.8715 78.6392 11.2059 79.2074 10.7026C79.7837 10.1912 80.4412 9.81784 81.1799 9.58244C81.9267 9.34704 82.7059 9.22935 83.5176 9.22935C84.0614 9.22935 84.6378 9.29428 85.2465 9.42416C85.8553 9.54591 86.4276 9.77725 86.9633 10.1182C87.5072 10.451 87.9495 10.9299 88.2905 11.5549C88.6314 12.1799 88.8018 12.9876 88.8018 13.9778V23.0122H86.2084V21.1493H86.111C85.9487 21.4821 85.693 21.8149 85.3439 22.1477C85.003 22.4805 84.5647 22.7565 84.029 22.9756C83.4933 23.1948 82.8479 23.3044 82.0931 23.3044ZM82.6653 21.1858C83.404 21.1858 84.033 21.0438 84.5525 20.7597C85.072 20.4675 85.4698 20.086 85.7457 19.6152C86.0217 19.1444 86.1597 18.6452 86.1597 18.1176V16.3521C86.0623 16.4414 85.8797 16.5266 85.6118 16.6078C85.344 16.689 85.0396 16.7579 84.6986 16.8148C84.3577 16.8716 84.0249 16.9243 83.7002 16.973C83.3756 17.0136 83.1036 17.0461 82.8845 17.0705C82.3731 17.1435 81.9064 17.2571 81.4843 17.4114C81.0622 17.5575 80.7213 17.7766 80.4615 18.0689C80.2099 18.353 80.0841 18.7304 80.0841 19.2012C80.0841 19.8587 80.3276 20.3538 80.8146 20.6866C81.3016 21.0194 81.9185 21.1858 82.6653 21.1858Z" fill="#3B5249"/>
<path d="M96.5947 4.87047H99.9308L105.702 18.9699H105.909L111.693 4.87047H115.077V23.0122H112.399V9.88683H112.228L106.859 22.9878H104.692L99.3829 9.87466H99.2125V23.0122H96.5947V4.87047Z" fill="#3B5249"/>
<path d="M123.412 23.2922C122.081 23.2922 120.928 23.004 119.954 22.4277C118.98 21.8514 118.229 21.0397 117.701 19.9926C117.182 18.9374 116.922 17.7076 116.922 16.3034C116.922 14.9073 117.178 13.6775 117.689 12.6142C118.209 11.5508 118.935 10.7229 119.869 10.1303C120.81 9.52968 121.914 9.22935 123.18 9.22935C123.952 9.22935 124.698 9.35516 125.421 9.60679C126.143 9.85842 126.793 10.2562 127.369 10.8C127.945 11.3438 128.4 12.05 128.733 12.9186C129.073 13.7871 129.244 14.8342 129.244 16.0599V17.0096H118.42V15.025H127.88L126.651 15.6824C126.651 14.8464 126.521 14.1077 126.261 13.4665C126.001 12.8252 125.612 12.326 125.092 11.9689C124.581 11.6036 123.943 11.421 123.18 11.421C122.417 11.421 121.764 11.6036 121.22 11.9689C120.684 12.3341 120.275 12.8171 119.99 13.4178C119.706 14.0184 119.564 14.6759 119.564 15.3902V16.7417C119.564 17.6752 119.727 18.4666 120.051 19.116C120.376 19.7653 120.827 20.2605 121.403 20.6014C121.987 20.9423 122.665 21.1128 123.436 21.1128C123.939 21.1128 124.394 21.0397 124.8 20.8936C125.214 20.7475 125.571 20.5283 125.871 20.2361C126.172 19.9439 126.399 19.5827 126.553 19.1525L129.061 19.6273C128.858 20.3579 128.501 20.9991 127.99 21.5511C127.478 22.1031 126.833 22.5333 126.054 22.8417C125.283 23.142 124.402 23.2922 123.412 23.2922Z" fill="#3B5249"/>
<path d="M133.475 14.9397V23.0122H130.845V9.39981H133.402V11.6401H133.585C133.893 10.9015 134.376 10.317 135.034 9.88683C135.691 9.44851 136.535 9.22935 137.566 9.22935C138.492 9.22935 139.299 9.42416 139.989 9.81378C140.687 10.1953 141.227 10.7675 141.609 11.5305C141.998 12.2935 142.193 13.2392 142.193 14.3675V23.0122H139.563V14.684C139.563 13.7019 139.303 12.9307 138.784 12.3707C138.264 11.8025 137.558 11.5184 136.665 11.5184C136.056 11.5184 135.509 11.6564 135.022 11.9323C134.543 12.2002 134.165 12.5858 133.889 13.089C133.613 13.5923 133.475 14.2092 133.475 14.9397Z" fill="#3B5249"/>
<path d="M150.807 9.39981V11.5305H143.38V9.39981H150.807ZM145.365 6.16109H148.007V19.0186C148.007 19.6436 148.137 20.1022 148.397 20.3944C148.656 20.6785 149.074 20.8206 149.651 20.8206C149.789 20.8206 149.935 20.8124 150.089 20.7962C150.251 20.78 150.414 20.7556 150.576 20.7231L151.075 22.9148C150.807 23.004 150.515 23.073 150.199 23.1217C149.882 23.1704 149.566 23.1948 149.249 23.1948C148.072 23.1948 147.13 22.8661 146.424 22.2086C145.718 21.543 145.365 20.6582 145.365 19.5543V6.16109Z" fill="#3B5249"/>
<path d="M158.168 23.2922C156.837 23.2922 155.684 23.004 154.71 22.4277C153.736 21.8514 152.985 21.0397 152.458 19.9926C151.938 18.9374 151.678 17.7076 151.678 16.3034C151.678 14.9073 151.934 13.6775 152.445 12.6142C152.965 11.5508 153.691 10.7229 154.625 10.1303C155.566 9.52968 156.67 9.22935 157.937 9.22935C158.708 9.22935 159.454 9.35516 160.177 9.60679C160.899 9.85842 161.549 10.2562 162.125 10.8C162.701 11.3438 163.156 12.05 163.489 12.9186C163.83 13.7871 164 14.8342 164 16.0599V17.0096H153.176V15.025H162.636L161.407 15.6824C161.407 14.8464 161.277 14.1077 161.017 13.4665C160.757 12.8252 160.368 12.326 159.848 11.9689C159.337 11.6036 158.7 11.421 157.937 11.421C157.174 11.421 156.52 11.6036 155.976 11.9689C155.441 12.3341 155.031 12.8171 154.747 13.4178C154.462 14.0184 154.32 14.6759 154.32 15.3902V16.7417C154.32 17.6752 154.483 18.4666 154.807 19.116C155.132 19.7653 155.583 20.2605 156.159 20.6014C156.743 20.9423 157.421 21.1128 158.192 21.1128C158.695 21.1128 159.15 21.0397 159.556 20.8936C159.97 20.7475 160.327 20.5283 160.627 20.2361C160.928 19.9439 161.155 19.5827 161.309 19.1525L163.817 19.6273C163.614 20.3579 163.257 20.9991 162.746 21.5511C162.235 22.1031 161.589 22.5333 160.81 22.8417C160.039 23.142 159.158 23.2922 158.168 23.2922Z" fill="#3B5249"/>
</svg>
