<svg width="164" height="28" viewBox="0 0 164 28" fill="none" xmlns="http://www.w3.org/2000/svg">
<path d="M12.2295 23.1745L8.016 18.9609C5.03569 15.9806 0 18.0874 0 22.3009V27.7991H24.4591V10.9449L12.2295 23.1745Z" fill="white"/>
<path d="M12.2295 4.62461L16.4431 8.83815C19.4234 11.8185 24.4591 9.71169 24.4591 5.49815V0H0V16.8541L12.2295 4.62461Z" fill="white"/>
<path d="M43.0877 23.2039C41.7321 23.2039 40.5551 22.9929 39.5567 22.5708C38.5665 22.1406 37.7913 21.5277 37.2312 20.7323C36.6711 19.9368 36.3586 18.9911 36.2937 17.8953H39.0454C39.1022 18.5528 39.3132 19.1007 39.6785 19.539C40.0519 19.9693 40.5349 20.2899 41.1274 20.5009C41.72 20.712 42.3693 20.8175 43.0755 20.8175C43.8466 20.8175 44.5366 20.6957 45.1454 20.4522C45.7541 20.2087 46.229 19.8678 46.5699 19.4295C46.9189 18.983 47.0935 18.4635 47.0935 17.871C47.0935 17.3353 46.9392 16.8969 46.6308 16.556C46.3305 16.2151 45.9205 15.9351 45.4011 15.7159C44.8816 15.4886 44.2971 15.2898 43.6478 15.1193L41.517 14.5349C40.056 14.1452 38.9033 13.5649 38.0591 12.7937C37.215 12.0145 36.7929 10.9958 36.7929 9.73767C36.7929 8.69056 37.0729 7.77739 37.633 6.99815C38.2012 6.21891 38.9683 5.61418 39.9342 5.18398C40.9082 4.74566 42 4.52649 43.2094 4.52649C44.4432 4.52649 45.5269 4.74566 46.4603 5.18398C47.4019 5.61418 48.1446 6.20673 48.6885 6.96162C49.2404 7.70839 49.5286 8.56475 49.5529 9.53068H46.8987C46.8012 8.69462 46.4116 8.04525 45.7298 7.58258C45.0561 7.1199 44.1957 6.88857 43.1486 6.88857C42.418 6.88857 41.7768 7.00627 41.2248 7.24166C40.681 7.46894 40.2589 7.78551 39.9585 8.19136C39.6663 8.59721 39.5202 9.06395 39.5202 9.59156C39.5202 10.1598 39.6947 10.6224 40.0438 10.9796C40.4009 11.3367 40.8311 11.6208 41.3344 11.8319C41.8458 12.0348 42.3368 12.2012 42.8076 12.3311L44.5731 12.8059C45.1494 12.952 45.742 13.1468 46.3507 13.3904C46.9595 13.6339 47.5237 13.9545 48.0432 14.3522C48.5708 14.7419 48.9929 15.2289 49.3094 15.8133C49.6341 16.3896 49.7965 17.0877 49.7965 17.9075C49.7965 18.9222 49.5326 19.8313 49.005 20.6349C48.4774 21.4303 47.7144 22.0594 46.716 22.5221C45.7176 22.9766 44.5082 23.2039 43.0877 23.2039Z" fill="white"/>
<path d="M55.5132 23.2039C54.6527 23.2039 53.8735 23.0456 53.1754 22.7291C52.4774 22.4044 51.9254 21.9336 51.5196 21.3167C51.1137 20.6998 50.9108 19.949 50.9108 19.0642C50.9108 18.2931 51.0569 17.664 51.3491 17.177C51.6494 16.6818 52.0512 16.2882 52.5545 15.9959C53.0577 15.7037 53.6178 15.4846 54.2347 15.3385C54.8516 15.1923 55.4847 15.0787 56.1341 14.9975C56.9539 14.9083 57.6155 14.8311 58.1187 14.7662C58.622 14.7013 58.9873 14.5998 59.2146 14.4618C59.4499 14.3157 59.5676 14.0844 59.5676 13.7678V13.7069C59.5676 12.9358 59.3485 12.3392 58.9102 11.9171C58.48 11.495 57.8387 11.284 56.9864 11.284C56.1017 11.284 55.3995 11.4788 54.88 11.8684C54.3687 12.2499 54.0156 12.6842 53.8207 13.1712L51.3247 12.5989C51.6251 11.771 52.0593 11.1054 52.6275 10.6021C53.2038 10.0908 53.8613 9.71737 54.6 9.48198C55.3468 9.24658 56.126 9.12888 56.9377 9.12888C57.4816 9.12888 58.0579 9.19382 58.6667 9.32369C59.2754 9.44545 59.8477 9.67679 60.3834 10.0177C60.9273 10.3505 61.3696 10.8294 61.7106 11.4544C62.0515 12.0794 62.2219 12.8871 62.2219 13.8774V22.9117H59.6285V21.0488H59.5311C59.3688 21.3816 59.1131 21.7144 58.7641 22.0472C58.4231 22.38 57.9848 22.656 57.4491 22.8752C56.9134 23.0943 56.268 23.2039 55.5132 23.2039ZM56.0854 21.0854C56.8241 21.0854 57.4531 20.9433 57.9726 20.6592C58.4921 20.367 58.8899 19.9855 59.1659 19.5147C59.4418 19.0439 59.5798 18.5447 59.5798 18.0171V16.2516C59.4824 16.3409 59.2998 16.4261 59.0319 16.5073C58.7641 16.5885 58.4597 16.6575 58.1187 16.7143C57.7778 16.7711 57.445 16.8239 57.1203 16.8726C56.7957 16.9132 56.5237 16.9456 56.3046 16.97C55.7932 17.043 55.3265 17.1567 54.9044 17.3109C54.4823 17.457 54.1414 17.6762 53.8816 17.9684C53.63 18.2525 53.5042 18.6299 53.5042 19.1007C53.5042 19.7582 53.7477 20.2534 54.2347 20.5862C54.7217 20.919 55.3386 21.0854 56.0854 21.0854Z" fill="white"/>
<path d="M67.1472 14.8393V22.9117H64.5173V9.29934H67.0742V11.5397H67.2568C67.5652 10.801 68.0482 10.2166 68.7057 9.78637C69.3632 9.34805 70.2074 9.12888 71.2382 9.12888C72.1636 9.12888 72.9712 9.32369 73.6612 9.71331C74.3593 10.0948 74.899 10.6671 75.2805 11.4301C75.6702 12.1931 75.865 13.1387 75.865 14.267V22.9117H73.235V14.5836C73.235 13.6014 72.9753 12.8303 72.4558 12.2702C71.9363 11.702 71.2301 11.4179 70.3372 11.4179C69.7285 11.4179 69.1805 11.5559 68.6935 11.8319C68.2146 12.0997 67.8372 12.4853 67.5612 12.9886C67.2852 13.4918 67.1472 14.1087 67.1472 14.8393Z" fill="white"/>
<path d="M82.0931 23.2039C81.2326 23.2039 80.4534 23.0456 79.7553 22.7291C79.0573 22.4044 78.5053 21.9336 78.0994 21.3167C77.6936 20.6998 77.4907 19.949 77.4907 19.0642C77.4907 18.2931 77.6368 17.664 77.929 17.177C78.2293 16.6818 78.6311 16.2882 79.1344 15.9959C79.6376 15.7037 80.1977 15.4846 80.8146 15.3385C81.4315 15.1923 82.0646 15.0787 82.714 14.9975C83.5338 14.9083 84.1954 14.8311 84.6986 14.7662C85.2019 14.7013 85.5672 14.5998 85.7944 14.4618C86.0298 14.3157 86.1475 14.0844 86.1475 13.7678V13.7069C86.1475 12.9358 85.9284 12.3392 85.4901 11.9171C85.0599 11.495 84.4186 11.284 83.5663 11.284C82.6815 11.284 81.9794 11.4788 81.4599 11.8684C80.9485 12.2499 80.5955 12.6842 80.4006 13.1712L77.9046 12.5989C78.205 11.771 78.6392 11.1054 79.2074 10.6021C79.7837 10.0908 80.4412 9.71737 81.1799 9.48198C81.9267 9.24658 82.7059 9.12888 83.5176 9.12888C84.0614 9.12888 84.6378 9.19382 85.2465 9.32369C85.8553 9.44545 86.4276 9.67679 86.9633 10.0177C87.5072 10.3505 87.9495 10.8294 88.2905 11.4544C88.6314 12.0794 88.8018 12.8871 88.8018 13.8774V22.9117H86.2084V21.0488H86.111C85.9487 21.3816 85.693 21.7144 85.3439 22.0472C85.003 22.38 84.5647 22.656 84.029 22.8752C83.4933 23.0943 82.8479 23.2039 82.0931 23.2039ZM82.6653 21.0854C83.404 21.0854 84.033 20.9433 84.5525 20.6592C85.072 20.367 85.4698 19.9855 85.7457 19.5147C86.0217 19.0439 86.1597 18.5447 86.1597 18.0171V16.2516C86.0623 16.3409 85.8797 16.4261 85.6118 16.5073C85.3439 16.5885 85.0396 16.6575 84.6986 16.7143C84.3577 16.7711 84.0249 16.8239 83.7002 16.8726C83.3756 16.9132 83.1036 16.9456 82.8845 16.97C82.3731 17.043 81.9064 17.1567 81.4843 17.3109C81.0622 17.457 80.7213 17.6762 80.4615 17.9684C80.2099 18.2525 80.0841 18.6299 80.0841 19.1007C80.0841 19.7582 80.3276 20.2534 80.8146 20.5862C81.3016 20.919 81.9185 21.0854 82.6653 21.0854Z" fill="white"/>
<path d="M96.5947 4.77001H99.9308L105.702 18.8694H105.909L111.693 4.77001H115.077V22.9117H112.399V9.78637H112.228L106.859 22.8873H104.692L99.3829 9.77419H99.2125V22.9117H96.5947V4.77001Z" fill="white"/>
<path d="M123.412 23.1917C122.081 23.1917 120.928 22.9036 119.954 22.3273C118.98 21.751 118.229 20.9392 117.701 19.8921C117.182 18.8369 116.922 17.6072 116.922 16.2029C116.922 14.8068 117.178 13.577 117.689 12.5137C118.209 11.4504 118.935 10.6224 119.869 10.0299C120.81 9.42922 121.914 9.12888 123.18 9.12888C123.952 9.12888 124.698 9.2547 125.421 9.50633C126.143 9.75796 126.793 10.1557 127.369 10.6995C127.945 11.2434 128.4 11.9496 128.733 12.8181C129.073 13.6866 129.244 14.7337 129.244 15.9594V16.9091H118.42V14.9245H127.88L126.651 15.582C126.651 14.7459 126.521 14.0073 126.261 13.366C126.001 12.7248 125.612 12.2256 125.092 11.8684C124.581 11.5031 123.943 11.3205 123.18 11.3205C122.417 11.3205 121.764 11.5031 121.22 11.8684C120.684 12.2337 120.275 12.7166 119.99 13.3173C119.706 13.918 119.564 14.5754 119.564 15.2898V16.6412C119.564 17.5747 119.727 18.3661 120.051 19.0155C120.376 19.6649 120.827 20.16 121.403 20.5009C121.987 20.8418 122.665 21.0123 123.436 21.0123C123.939 21.0123 124.394 20.9392 124.8 20.7931C125.214 20.647 125.571 20.4279 125.871 20.1357C126.172 19.8434 126.399 19.4822 126.553 19.052L129.061 19.5269C128.858 20.2574 128.501 20.8987 127.99 21.4506C127.478 22.0026 126.833 22.4328 126.054 22.7412C125.283 23.0416 124.402 23.1917 123.412 23.1917Z" fill="white"/>
<path d="M133.475 14.8393V22.9117H130.845V9.29934H133.402V11.5397H133.585C133.893 10.801 134.376 10.2166 135.034 9.78637C135.691 9.34805 136.535 9.12888 137.566 9.12888C138.492 9.12888 139.299 9.32369 139.989 9.71331C140.687 10.0948 141.227 10.6671 141.609 11.4301C141.998 12.1931 142.193 13.1387 142.193 14.267V22.9117H139.563V14.5836C139.563 13.6014 139.303 12.8303 138.784 12.2702C138.264 11.702 137.558 11.4179 136.665 11.4179C136.056 11.4179 135.509 11.5559 135.022 11.8319C134.543 12.0997 134.165 12.4853 133.889 12.9886C133.613 13.4918 133.475 14.1087 133.475 14.8393Z" fill="white"/>
<path d="M150.807 9.29934V11.4301H143.38V9.29934H150.807ZM145.365 6.06062H148.007V18.9181C148.007 19.5431 148.137 20.0017 148.397 20.2939C148.656 20.578 149.074 20.7201 149.651 20.7201C149.789 20.7201 149.935 20.712 150.089 20.6957C150.251 20.6795 150.414 20.6551 150.576 20.6227L151.075 22.8143C150.807 22.9036 150.515 22.9726 150.199 23.0213C149.882 23.07 149.566 23.0943 149.249 23.0943C148.072 23.0943 147.13 22.7656 146.424 22.1081C145.718 21.4425 145.365 20.5577 145.365 19.4538V6.06062Z" fill="white"/>
<path d="M158.168 23.1917C156.837 23.1917 155.684 22.9036 154.71 22.3273C153.736 21.751 152.985 20.9392 152.458 19.8921C151.938 18.8369 151.678 17.6072 151.678 16.2029C151.678 14.8068 151.934 13.577 152.445 12.5137C152.965 11.4504 153.691 10.6224 154.625 10.0299C155.566 9.42922 156.67 9.12888 157.937 9.12888C158.708 9.12888 159.454 9.2547 160.177 9.50633C160.899 9.75796 161.549 10.1557 162.125 10.6995C162.701 11.2434 163.156 11.9496 163.489 12.8181C163.83 13.6866 164 14.7337 164 15.9594V16.9091H153.176V14.9245H162.636L161.407 15.582C161.407 14.7459 161.277 14.0073 161.017 13.366C160.757 12.7248 160.368 12.2256 159.848 11.8684C159.337 11.5031 158.7 11.3205 157.937 11.3205C157.174 11.3205 156.52 11.5031 155.976 11.8684C155.441 12.2337 155.031 12.7166 154.747 13.3173C154.462 13.918 154.32 14.5754 154.32 15.2898V16.6412C154.32 17.5747 154.483 18.3661 154.807 19.0155C155.132 19.6649 155.583 20.16 156.159 20.5009C156.743 20.8418 157.421 21.0123 158.192 21.0123C158.695 21.0123 159.15 20.9392 159.556 20.7931C159.97 20.647 160.327 20.4279 160.627 20.1357C160.928 19.8434 161.155 19.4822 161.309 19.052L163.817 19.5269C163.614 20.2574 163.257 20.8987 162.746 21.4506C162.235 22.0026 161.589 22.4328 160.81 22.7412C160.039 23.0416 159.158 23.1917 158.168 23.1917Z" fill="white"/>
</svg>
