<svg width="112" height="45" viewBox="0 0 112 45" fill="none" xmlns="http://www.w3.org/2000/svg">
<path d="M58.5097 16.0138C57.5975 15.2476 56.0285 14.8644 53.8027 14.8644H48.8038V30.3172H52.5439V25.4643H54.2224C56.2475 25.4643 57.7435 25.0082 58.6922 24.1142C59.7686 23.1108 60.2977 21.779 60.2977 20.1005C60.2977 18.3856 59.6956 17.0172 58.5097 16.0138ZM54.1129 21.9614H52.5257V18.3491H53.9487C55.6819 18.3491 56.5394 18.9511 56.5394 20.1735C56.5576 21.3594 55.7366 21.9614 54.1129 21.9614ZM66.6831 14.8462H62.7971V30.299H71.2077V26.7961H66.6831V14.8462ZM78.852 14.8462L72.7219 30.299H76.9181L77.7208 28.055H83.0481L83.7779 30.299H88.0287L81.9535 14.8462H78.852ZM78.7972 24.9352L80.4027 19.6444L81.9899 24.9352H78.7972Z" fill="white"/>
<path d="M89.9811 30.2994H93.8853V14.8466H89.9811V30.2994ZM109.01 17.7474C108.517 17.0359 107.879 16.4338 107.149 15.9595C105.963 15.2115 104.357 14.8466 102.332 14.8466H97.1875V30.2994H103.19C105.361 30.2994 107.112 29.5878 108.426 28.1648C109.739 26.7418 110.396 24.8626 110.396 22.5091C110.415 20.6482 109.94 19.061 109.01 17.7474ZM102.77 26.7965H101.11V18.3495H102.807C103.993 18.3495 104.923 18.7143 105.562 19.4624C106.2 20.2104 106.529 21.2685 106.529 22.6368C106.51 25.4099 105.27 26.7965 102.77 26.7965ZM17.1323 1.875L4.48907 5.17719L1.00444 17.8934L5.38303 22.3632L0.949707 26.76L4.23365 39.5309L16.8221 43.052L21.2554 38.6552L25.6158 43.125L38.259 39.8228L41.7436 27.1066L37.3832 22.6368L41.8166 18.24L38.5326 5.46909L25.9442 1.94798L21.5108 6.34481L17.1323 1.875ZM9.3785 7.6219L16.0376 5.87047L18.9567 8.86251L14.7058 13.0769L9.3785 7.6219ZM23.9921 8.91724L26.9476 5.97993L33.5702 7.84083L28.1517 13.2229C28.17 13.2046 23.9921 8.91724 23.9921 8.91724ZM4.99991 16.8534L6.84256 10.1578L12.1699 15.6128L7.91897 19.8272L4.99991 16.8534ZM30.6694 15.777L36.0879 10.395L37.8211 17.1271L34.8656 20.0644C34.8473 20.0644 30.6694 15.777 30.6694 15.777ZM17.2052 15.6676L21.4561 11.4532L25.634 15.7405L21.3831 19.9549L17.2052 15.6676ZM10.4184 22.3997L14.6693 18.1853L18.8472 22.4726L14.5963 26.687L10.4184 22.3997ZM23.8826 22.5091L28.1335 18.2947L32.3114 22.5821L28.0605 26.7965C28.0605 26.8147 23.8826 22.5091 23.8826 22.5091ZM4.92693 27.8729L7.88248 24.9356L12.0604 29.223L6.66012 34.605C6.64188 34.605 4.92693 27.8729 4.92693 27.8729ZM17.0958 29.2595L21.3467 25.0451L25.5246 29.3324L21.2737 33.5468L17.0958 29.2595ZM30.5599 29.3689L34.8108 25.1545L37.7299 28.1466L35.9055 34.8422C35.8872 34.8422 30.5599 29.3689 30.5599 29.3689ZM9.14132 37.1592L14.5416 31.7771L18.7195 36.0645L15.7639 39.0018L9.14132 37.1592ZM23.7731 36.1192L28.024 31.9049L33.3513 37.3599L26.6922 39.1113L23.7731 36.1192Z" fill="white"/>
</svg>
