<svg width="156" height="45" viewBox="0 0 156 45" fill="none" xmlns="http://www.w3.org/2000/svg">
<g clip-path="url(#clip0_129_1308)">
<path d="M45.7796 15.0669H52.2653C55.8579 15.0669 57.723 16.54 57.723 19.3059V19.4437C57.7742 20.2543 57.5328 21.0563 57.0427 21.7039C56.5527 22.3515 55.8464 22.8017 55.0525 22.9727C56.0033 23.0564 56.8827 23.5118 57.4998 24.24C58.1168 24.9681 58.4217 25.9104 58.3483 26.862V26.9574C58.3483 29.9777 56.3665 31.5673 52.562 31.5673H45.7796V15.0669ZM51.6612 21.8388C53.4628 21.8388 54.1729 21.1923 54.1729 19.7192V19.6239C54.1729 18.2462 53.3886 17.6209 51.64 17.6209H49.4251V21.86L51.6612 21.8388ZM51.9792 28.9709C53.8231 28.9709 54.6603 28.1337 54.6603 26.6395V26.5441C54.6603 25.018 53.8231 24.2444 51.799 24.2444H49.4251V28.9815L51.9792 28.9709Z" fill="white"/>
<path d="M59.3234 28.2079C59.3234 25.389 61.8986 24.3292 65.5972 24.3292H66.9537V23.8523C66.9537 22.4217 66.5192 21.6374 64.9931 21.6374C64.7461 21.6081 64.4957 21.6296 64.2573 21.7007C64.0189 21.7718 63.7976 21.891 63.607 22.0508C63.4164 22.2106 63.2605 22.4078 63.149 22.6301C63.0374 22.8525 62.9726 23.0953 62.9584 23.3436H59.7791C59.9911 20.4823 62.2484 19.2106 65.2051 19.2106C68.1618 19.2106 70.2495 20.4081 70.2495 23.6828V31.5462H66.9961V30.0943C66.5878 30.6696 66.0373 31.1292 65.3983 31.4282C64.7594 31.7273 64.0538 31.8555 63.3505 31.8005C61.1674 31.8005 59.3234 30.7407 59.3234 28.2079ZM66.9537 27.3283V26.2686H65.6608C63.7214 26.2686 62.5981 26.6925 62.5981 27.9748C62.5981 28.8544 63.128 29.4372 64.3467 29.4372C65.8197 29.4796 66.9537 28.6636 66.9537 27.3283Z" fill="white"/>
<path d="M71.6588 27.7628H74.7745C74.9122 28.8226 75.4421 29.4796 76.894 29.4796C78.1869 29.4796 78.791 28.9921 78.791 28.1549C78.791 27.3177 78.0703 26.9786 76.3429 26.7349C73.1636 26.2474 71.8919 25.3254 71.8919 22.9727C71.8919 20.6201 74.2022 19.2106 76.6608 19.2106C79.342 19.2106 81.345 20.1856 81.6417 22.9515H78.579C78.3988 21.9554 77.8372 21.4997 76.6926 21.4997C75.5481 21.4997 74.9864 22.0083 74.9864 22.7396C74.9864 23.4708 75.5587 23.7993 77.3073 24.0537C80.3276 24.4882 81.9914 25.2512 81.9914 27.837C81.9914 30.4228 80.105 31.8005 76.9152 31.8005C73.7253 31.8005 71.7754 30.3698 71.6588 27.7628Z" fill="white"/>
<path d="M82.8498 25.6645V25.4843C82.8097 24.6561 82.942 23.8286 83.2383 23.0542C83.5347 22.2798 83.9886 21.5753 84.5714 20.9855C85.1543 20.3957 85.8532 19.9334 86.6241 19.6279C87.3949 19.3223 88.2208 19.1802 89.0494 19.2106C92.1651 19.2106 94.9311 21.0333 94.9311 25.3465V26.2685H86.2729C86.3576 28.2715 87.4492 29.4478 89.2614 29.4478C90.8086 29.4478 91.5716 28.7802 91.7836 27.7628H94.9629C94.5708 30.3698 92.4936 31.8217 89.1978 31.8217C85.4992 31.8005 82.8498 29.522 82.8498 25.6645ZM91.6776 24.2126C91.5716 22.3898 90.6391 21.5632 89.0494 21.5632C88.3338 21.5598 87.6447 21.834 87.1269 22.328C86.6091 22.8221 86.303 23.4976 86.2729 24.2126H91.6776Z" fill="white"/>
<path d="M95.8107 25.6644V25.4842C95.7703 24.6542 95.9032 23.8248 96.2008 23.0489C96.4984 22.273 96.9543 21.5675 97.5394 20.9774C98.1246 20.3873 98.8262 19.9254 99.5995 19.6212C100.373 19.317 101.201 19.1771 102.031 19.2105C104.829 19.2105 107.404 20.4292 107.712 23.8946H104.533C104.511 23.5971 104.431 23.307 104.295 23.0413C104.16 22.7757 103.972 22.54 103.744 22.3482C103.516 22.1564 103.251 22.0125 102.966 21.925C102.681 21.8374 102.381 21.8081 102.084 21.8387C100.357 21.8387 99.2019 23.1316 99.2019 25.4418V25.622C99.2019 28.0488 100.262 29.2888 102.159 29.2888C102.481 29.3073 102.805 29.2615 103.109 29.1539C103.414 29.0464 103.695 28.8792 103.934 28.6623C104.174 28.4453 104.368 28.1828 104.505 27.8901C104.643 27.5974 104.72 27.2803 104.734 26.9573H107.754C107.574 29.8186 105.497 31.8004 101.989 31.8004C98.4813 31.8004 95.8107 29.6067 95.8107 25.6644Z" fill="white"/>
<path d="M108.528 28.2079C108.528 25.3889 111.103 24.3292 114.791 24.3292H116.158V23.8523C116.158 22.4216 115.713 21.6374 114.198 21.6374C113.949 21.6049 113.696 21.6241 113.455 21.6938C113.215 21.7634 112.991 21.882 112.798 22.0422C112.605 22.2023 112.447 22.4006 112.334 22.6245C112.221 22.8484 112.156 23.0932 112.142 23.3436H108.962C109.174 20.4823 111.432 19.2106 114.378 19.2106C117.324 19.2106 119.433 20.4081 119.433 23.6827V31.5461H116.179V30.0943C115.771 30.6696 115.221 31.1292 114.582 31.4282C113.943 31.7273 113.237 31.8555 112.534 31.8005C110.414 31.8005 108.528 30.7407 108.528 28.2079ZM116.158 27.3283V26.2685H114.886C112.947 26.2685 111.813 26.6924 111.813 27.9748C111.813 28.8543 112.354 29.4372 113.572 29.4372C115.067 29.4796 116.201 28.6636 116.201 27.3283H116.158Z" fill="white"/>
<path d="M121.785 19.4437H125.123V21.2876C125.487 20.6325 126.023 20.0889 126.673 19.7155C127.323 19.342 128.062 19.1528 128.811 19.1681C129.527 19.1109 130.241 19.2864 130.848 19.6683C131.456 20.0503 131.923 20.6183 132.181 21.2876C132.627 20.6229 133.231 20.0805 133.941 19.7102C134.65 19.3399 135.44 19.1535 136.24 19.1681C138.476 19.1681 140.204 20.5776 140.204 23.7781V31.5037H136.887V24.1914C136.887 22.6441 136.198 21.9553 134.99 21.9553C134.668 21.9413 134.348 21.9968 134.05 22.1181C133.752 22.2393 133.484 22.4234 133.263 22.6578C133.043 22.8922 132.876 23.1714 132.773 23.4763C132.671 23.7812 132.635 24.1046 132.669 24.4245V31.5461H129.341V24.1914C129.341 22.6441 128.631 21.9553 127.455 21.9553C127.133 21.9397 126.811 21.9941 126.512 22.1146C126.212 22.2352 125.943 22.419 125.721 22.6536C125.5 22.8882 125.332 23.1679 125.228 23.4736C125.125 23.7793 125.089 24.1037 125.123 24.4245V31.5461H121.785V19.4437Z" fill="white"/>
<path d="M142.493 19.4437H145.842V21.3406C146.241 20.6771 146.805 20.1283 147.479 19.7476C148.153 19.3668 148.915 19.1672 149.689 19.1681C152.646 19.1681 154.988 21.3618 154.988 25.3465V25.5373C154.988 29.522 152.73 31.7581 149.689 31.7581C148.915 31.7898 148.148 31.609 147.47 31.2354C146.791 30.8617 146.228 30.3095 145.842 29.6385V35.658H142.493V19.4437ZM151.554 25.3783C151.554 22.9303 150.357 21.7327 148.672 21.7327C146.987 21.7327 145.725 22.9515 145.725 25.3783V25.5585C145.725 27.9747 146.881 29.151 148.703 29.151C150.526 29.151 151.554 27.9217 151.554 25.6009V25.3783Z" fill="white"/>
<path fill-rule="evenodd" clip-rule="evenodd" d="M21.0026 9.30713C11.5989 9.30713 6.69472 17.2722 3.94888 25.0574C3.61695 25.9985 2.58497 26.4923 1.64387 26.1604C0.970758 25.923 0.526454 25.3274 0.449452 24.6631C0.418796 24.3987 0.446357 24.1233 0.540875 23.8554C3.32697 15.9561 9.0204 5.69336 21.0026 5.69336C27.2656 5.69336 31.7485 9.83677 34.6478 14.8146C37.5547 19.8054 39.1046 25.9852 39.4538 30.9749C39.4789 31.3335 39.3965 31.6915 39.217 32.003C37.538 34.9176 34.7446 36.817 31.5605 37.9804C28.3843 39.1409 24.705 39.6149 21.0171 39.6162C17.8838 39.6651 14.7767 39.038 11.9075 37.7776C9.03382 36.5153 6.46651 34.6474 4.38108 32.3016C3.93743 31.8025 3.80516 31.0995 4.03712 30.4733L4.03848 30.4697L4.04108 30.4627L4.04991 30.4391L4.0819 30.3548C4.10949 30.2826 4.14948 30.179 4.201 30.0486C4.30398 29.788 4.45344 29.419 4.64241 28.9774C5.01868 28.0981 5.55925 26.9131 6.20861 25.7166C6.84944 24.5359 7.63744 23.2666 8.5236 22.2665C9.33145 21.3548 10.5871 20.2442 12.1943 20.2333L12.2066 20.2332C13.3423 20.2332 14.2752 20.7532 14.9467 21.2531C15.6236 21.757 16.2383 22.3973 16.7309 22.9186C16.7875 22.9784 16.8424 23.0366 16.8958 23.0933C17.3546 23.5797 17.7054 23.9517 18.0388 24.2303C18.0762 24.2616 18.1106 24.2892 18.142 24.3135C18.2504 24.2028 18.3798 24.0576 18.5287 23.873C19.0583 23.2165 19.6531 22.2916 20.2287 21.3015C20.7967 20.3244 21.3138 19.3402 21.6907 18.5957C21.8785 18.2248 22.0301 17.9163 22.1341 17.7016C22.1861 17.5944 22.2262 17.5108 22.2529 17.4547L22.2827 17.3918L22.2898 17.3768L22.2913 17.3736C22.7149 16.4702 23.7909 16.0806 24.6944 16.5041C25.598 16.9277 25.9871 18.0035 25.5636 18.9071L25.5597 18.9154L25.5503 18.9353L25.5155 19.0085C25.4855 19.0717 25.4418 19.1629 25.3859 19.2782C25.2741 19.5087 25.1133 19.836 24.9148 20.2281C24.5191 21.0097 23.9678 22.0602 23.3528 23.1178C22.7455 24.1625 22.0428 25.2724 21.3414 26.1419C20.9936 26.573 20.5993 27.0044 20.1729 27.3435C19.796 27.6433 19.1312 28.086 18.279 28.086C17.1521 28.086 16.2642 27.4568 15.7215 27.0033C15.21 26.5759 14.6991 26.0327 14.2699 25.5763C14.2132 25.5161 14.158 25.4574 14.1044 25.4007C13.5955 24.8622 13.1796 24.4428 12.7888 24.1518C12.4463 23.8969 12.2714 23.8549 12.2212 23.8482C12.2212 23.8482 12.2176 23.8496 12.2144 23.8507C12.1592 23.8702 11.8273 23.9872 11.2283 24.6631C10.6073 25.364 9.97192 26.3586 9.38475 27.4404C8.80611 28.5066 8.31409 29.5828 7.96476 30.3991C7.91974 30.5043 7.87723 30.6049 7.83733 30.7002C9.42758 32.2848 11.2998 33.5636 13.3609 34.469C15.7584 35.5222 18.3549 36.0453 20.9732 36.0026L21.0026 36.0024C24.4208 36.0024 27.6562 35.5595 30.3204 34.5861C32.7714 33.6906 34.641 32.3854 35.8033 30.6528C35.4094 26.2123 33.995 20.8739 31.5251 16.6334C28.9401 12.1952 25.4325 9.30713 21.0026 9.30713ZM17.845 24.5703C17.845 24.5703 17.8529 24.5643 17.868 24.5565C17.8525 24.5671 17.845 24.5703 17.845 24.5703Z" fill="white"/>
</g>
<defs>
<clipPath id="clip0_129_1308">
<rect width="154.688" height="45" fill="white" transform="translate(0.4375)"/>
</clipPath>
</defs>
</svg>
