<svg width="121" height="45" viewBox="0 0 121 45" fill="none" xmlns="http://www.w3.org/2000/svg">
<g clip-path="url(#clip0_129_1283)">
<path d="M16.7183 18.7032L25.7804 22.8407L34.9267 14.8304C35.0585 14.1695 35.1238 13.497 35.1217 12.823C35.1212 10.6411 34.4225 8.51669 33.1277 6.76052C31.8329 5.00435 30.01 3.70868 27.9258 3.06308C25.8416 2.41749 23.6055 2.45587 21.5447 3.17262C19.4839 3.88936 17.7066 5.24683 16.4728 7.0464L14.9492 14.9267L16.7183 18.7032Z" fill="white"/>
<path d="M7.33797 28.2996C7.20434 28.9709 7.13742 29.6538 7.13819 30.3383C7.13823 32.5293 7.84058 34.6625 9.14215 36.425C10.4437 38.1875 12.276 39.4863 14.37 40.1309C16.464 40.7755 18.7095 40.7319 20.7769 40.0065C22.8443 39.2811 24.6247 37.9121 25.8569 36.1005L27.366 28.237L25.3514 24.3859L16.2556 20.2412L7.33797 28.2996Z" fill="white"/>
<path d="M7.28277 12.6181L13.4927 14.084L14.8526 7.02203C14.0079 6.38157 12.9786 6.03193 11.9186 6.02548C10.8586 6.01903 9.82506 6.3561 8.97269 6.98623C8.12032 7.61636 7.495 8.50564 7.19035 9.52092C6.88571 10.5362 6.91813 11.6228 7.28277 12.6181Z" fill="white"/>
<path d="M6.74364 14.0967C5.38113 14.5565 4.19577 15.4294 3.35242 16.5941C2.50908 17.7589 2.04967 19.1575 2.03809 20.5954C2.03711 21.9851 2.45914 23.3422 3.24808 24.4863C4.03702 25.6304 5.15549 26.5072 6.45481 27.0002L15.1679 19.1248L13.5673 15.7069L6.74364 14.0967Z" fill="white"/>
<path d="M27.4507 36.1005C28.2939 36.7377 29.3207 37.0851 30.3776 37.0907C31.4346 37.0963 32.465 36.7599 33.315 36.1317C34.165 35.5035 34.7889 34.6172 35.0937 33.6051C35.3985 32.5931 35.3678 31.5096 35.006 30.5164L28.801 29.0723L27.4507 36.1005Z" fill="white"/>
<path d="M28.7118 27.4374L35.5427 29.0332C36.906 28.5747 38.0922 27.702 38.9357 26.537C39.7792 25.372 40.2381 23.9728 40.2483 22.5345C40.247 21.1477 39.8241 19.794 39.0357 18.6531C38.2474 17.5123 37.1307 16.638 35.8339 16.1465L26.8994 23.969L28.7118 27.4374Z" fill="white"/>
<path d="M58.3389 29.9167L59.1669 29.8324L59.2246 31.5173C57.3822 31.7955 55.523 31.9483 53.6598 31.9746C51.6059 31.9746 50.1505 31.3801 49.2936 30.1911C48.4368 29.002 48.0091 27.1519 48.0107 24.6407C48.0107 19.6391 49.9989 17.1375 53.9751 17.1359C55.9007 17.1359 57.3368 17.6734 58.2835 18.7485C59.2303 19.8236 59.7052 21.5085 59.7084 23.8031L59.5953 25.4302H50.1794C50.1794 27.0091 50.465 28.1789 51.0363 28.9395C51.6075 29.7 52.6008 30.0803 54.016 30.0803C55.4345 30.0852 56.8755 30.0306 58.3389 29.9167ZM57.5687 23.726C57.5687 21.9754 57.2887 20.739 56.7286 20.017C56.1686 19.2949 55.2556 18.933 53.9896 18.9314C52.7235 18.9314 51.772 19.3117 51.1349 20.0723C50.4979 20.8329 50.1698 22.0508 50.1505 23.726H57.5687Z" fill="white"/>
<path d="M62.693 31.8615V13.0874H64.8328V31.8615H62.693Z" fill="white"/>
<path d="M78.3093 21.7283V28.925C78.3093 29.6471 80.0856 29.6086 80.0856 29.6086L79.9773 31.5004C78.473 31.5004 77.2286 31.6256 76.4824 30.9011C74.8666 31.6187 73.1164 31.9839 71.3485 31.9722C70.0375 31.9722 69.0386 31.6007 68.3518 30.8578C67.6651 30.1148 67.3225 29.047 67.3241 27.6542C67.3241 26.2646 67.6763 25.2416 68.3807 24.5853C69.0851 23.929 70.1883 23.5279 71.6902 23.3818L76.1695 22.9558V21.7283C76.1695 20.7655 75.9609 20.0707 75.5437 19.6439C75.3151 19.4293 75.0454 19.2632 74.7509 19.1557C74.4564 19.0481 74.1431 19.0013 73.83 19.0181H68.2074V17.1334H73.688C75.3054 17.1334 76.48 17.5049 77.2117 18.2479C77.9434 18.9908 78.3093 20.1509 78.3093 21.7283ZM69.5168 27.5482C69.5168 29.2989 70.2389 30.1742 71.683 30.1742C72.9859 30.1727 74.279 29.9505 75.5076 29.5171L76.1623 29.2885V24.5805L71.9478 24.9801C71.0909 25.0571 70.4723 25.3042 70.092 25.7214C69.7118 26.1386 69.52 26.7475 69.5168 27.5482Z" fill="white"/>
<path d="M86.6635 19.047C84.5888 19.047 83.5514 19.769 83.5514 21.2132C83.5514 21.8807 83.7921 22.3517 84.2735 22.6261C84.7548 22.9005 85.8388 23.1861 87.5252 23.4829C89.2197 23.7798 90.4184 24.1938 91.1212 24.7249C91.824 25.256 92.1762 26.2541 92.1778 27.7191C92.1778 29.1858 91.7069 30.2609 90.765 30.9444C89.823 31.628 88.4487 31.9706 86.6419 31.9722C85.4625 31.9722 81.5247 31.5341 81.5247 31.5341L81.6403 29.6808C83.9028 29.8974 85.5371 30.0587 86.6419 30.0587C87.7467 30.0587 88.5867 29.883 89.1668 29.5316C89.7468 29.1801 90.0357 28.5904 90.0357 27.7625C90.0357 26.9345 89.795 26.3737 89.2943 26.0776C88.7937 25.7816 87.7154 25.5024 86.0426 25.2352C84.3697 24.968 83.1783 24.5781 82.4755 24.0654C81.7727 23.5527 81.4188 22.5996 81.4188 21.2108C81.4188 19.822 81.9002 18.8039 82.8895 18.1299C83.8787 17.456 85.0918 17.131 86.5552 17.131C87.7154 17.131 91.7422 17.4271 91.7422 17.4271V19.2925C89.6169 19.1986 87.879 19.047 86.6635 19.047Z" fill="white"/>
<path d="M102.492 19.2732H97.9546V26.0945C97.9546 27.7296 98.0733 28.8039 98.3108 29.3173C98.5515 29.8324 99.1147 30.0876 100.008 30.0876L102.547 29.9167L102.691 31.6858C101.73 31.8635 100.756 31.9689 99.779 32.0011C98.2964 32.0011 97.2694 31.6392 96.6982 30.9155C96.1269 30.1919 95.8421 28.8127 95.8437 26.778V19.2732H93.8267V17.4199H95.8533V13.0537H97.9642V17.4199H102.492V19.2732Z" fill="white"/>
<path d="M105.467 15.5978V13.1139H107.606V15.5978H105.467ZM105.467 31.8615V17.4199H107.606V31.8615H105.467Z" fill="white"/>
<path d="M116.875 17.1335C117.944 17.1791 119.009 17.294 120.062 17.4776L120.746 17.5619L120.662 19.3021C119.543 19.1604 118.419 19.0753 117.292 19.047C115.674 19.047 114.576 19.4321 113.997 20.2023C113.418 20.9725 113.127 22.399 113.125 24.4818C113.125 26.5678 113.397 28.0184 113.939 28.8336C114.481 29.6487 115.613 30.0579 117.333 30.0611L120.703 29.806L120.789 31.575C119.477 31.7972 118.152 31.9307 116.823 31.9746C114.599 31.9746 113.063 31.4034 112.216 30.2609C111.368 29.1184 110.945 27.1928 110.945 24.4842C110.945 21.774 111.401 19.8717 112.314 18.7774C113.227 17.683 114.748 17.1351 116.875 17.1335Z" fill="white"/>
</g>
<defs>
<clipPath id="clip0_129_1283">
<rect width="120" height="45" fill="white" transform="translate(0.4375)"/>
</clipPath>
</defs>
</svg>
