<svg width="223" height="45" viewBox="0 0 223 45" fill="none" xmlns="http://www.w3.org/2000/svg">
<g clip-path="url(#clip0_129_1306)">
<path d="M166.483 13.0589H164.977V14.5646C164.977 14.9518 165.15 15.425 165.924 15.425H167.43V13.9193C167.43 13.5751 167.301 13.0589 166.483 13.0589Z" fill="white"/>
<path d="M166.354 17.9203H165.15V30.3533C165.15 30.8696 165.494 31.2138 165.967 31.2568V31.2998H167.344V18.8237C167.301 18.2644 166.999 17.9203 166.354 17.9203Z" fill="white"/>
<path d="M93.4766 27.643C92.9603 27.1267 92.315 27.2558 91.9278 27.6C90.336 28.9336 88.8733 29.4499 86.9804 29.4499C83.1945 29.4499 80.1831 26.2663 80.1831 22.1793C80.1831 18.0923 83.1085 14.9518 86.9804 14.9518C88.8303 14.9518 90.3791 15.5111 91.8418 16.7587C92.1859 17.0598 92.7882 17.1889 93.2185 16.7156C93.6056 16.3285 93.9928 15.8982 93.9928 15.8982L94.0789 15.8122L93.9928 15.7262C92.4441 14.2204 90.5081 12.8438 86.9804 12.8438C81.8609 12.8438 77.903 16.9738 77.903 22.2223C77.903 27.5139 81.7749 31.5149 86.9374 31.5149C89.8198 31.5149 91.9278 30.5684 94.0789 28.3313L94.1219 28.2453L94.0789 28.1592C94.0789 28.2453 93.9498 28.0732 93.4766 27.643Z" fill="white"/>
<path d="M126.173 17.6191C124.28 17.6191 122.774 18.4365 121.612 20.0713C121.096 19.0388 119.892 17.5331 117.396 17.5331C115.245 17.5331 114.084 18.6516 113.223 19.7701V18.8237C113.223 18.1784 112.836 17.7912 112.234 17.7912H111.029V31.1707H112.234C112.836 31.1707 113.18 30.9986 113.18 30.2673V23.599C113.18 21.2759 114.686 19.555 116.708 19.555C118.773 19.555 119.978 20.9747 119.978 23.3839V30.2673C119.978 30.9126 120.322 31.2137 120.924 31.2137H122.129V23.556C122.129 20.8027 123.892 19.5981 125.656 19.5981C127.764 19.5981 128.969 21.0178 128.969 23.4269V30.1382C128.969 30.6975 129.098 31.2137 129.958 31.2137H131.12V22.9967C131.163 19.6841 129.27 17.6191 126.173 17.6191Z" fill="white"/>
<path d="M141.703 17.6621C139.724 17.6621 138.089 18.5225 136.756 20.3724V18.9957C136.756 18.3074 136.368 17.9632 135.68 17.9632H134.605V34.3973C134.605 35.0426 134.906 35.3437 135.551 35.3437H136.756V28.9766C138.089 30.6975 139.681 31.5579 141.703 31.5579C144.801 31.5579 148.07 29.1057 148.07 24.5885C148.07 20.0713 144.801 17.6621 141.703 17.6621ZM145.833 24.5885C145.833 27.5139 143.983 29.5359 141.316 29.5359C139.036 29.5359 136.67 27.643 136.67 24.5455C136.67 21.4479 139.036 19.555 141.316 19.555C143.553 19.598 145.833 21.3189 145.833 24.5885Z" fill="white"/>
<path d="M181.498 18.8667V19.9853C180.594 18.8237 179.002 17.5331 176.464 17.5331C174.872 17.5331 173.281 18.1353 172.119 19.2109C170.871 20.3724 170.183 22.0503 170.183 23.8571C170.183 27.9441 173.41 30.1382 176.464 30.1382C178.443 30.1382 180.121 29.3208 181.541 27.6V28.8906C181.541 31.816 179.82 33.4939 176.894 33.4939C175.475 33.4939 174.098 33.1497 172.807 32.4183C172.463 32.2032 172.205 32.1172 171.99 32.1172C171.732 32.1172 171.474 32.2462 171.302 32.5474C170.957 33.1067 170.828 33.3648 170.828 33.3648L170.785 33.4508L170.871 33.4939C172.635 34.7415 174.657 35.3438 176.894 35.3438C181.196 35.3438 183.692 32.9776 183.692 28.8476V17.8772H182.487C182.1 17.8772 181.498 18.2214 181.498 18.8667ZM181.627 23.9862C181.627 26.7396 179.217 28.3744 176.894 28.3744C174.356 28.3744 172.463 26.4814 172.463 23.9862C172.463 21.448 174.356 19.6411 176.894 19.6411C179.174 19.5981 181.627 21.1038 181.627 23.9862Z" fill="white"/>
<path d="M193.845 17.6621C191.952 17.6621 190.489 18.4365 189.457 19.9852V18.8667C189.457 18.2214 188.94 17.9632 188.424 17.9632H187.219V31.3428H189.414L189.37 23.685C189.37 21.3189 190.962 19.6841 193.242 19.6841C195.479 19.6841 196.77 21.1038 196.77 23.556V30.4393C196.77 31.0846 197.071 31.3428 197.631 31.3428H198.921V22.9967C198.964 19.7271 196.985 17.6621 193.845 17.6621Z" fill="white"/>
<path d="M156.158 17.7051C154.48 17.7051 152.975 18.0493 151.34 18.7807L151.254 18.8237L151.297 18.9097C151.297 18.9097 151.512 19.512 151.684 19.9422C151.856 20.3725 152.372 20.4155 152.76 20.2434C153.878 19.8132 154.868 19.5981 155.986 19.5981C158.438 19.5981 159.772 20.8457 159.772 23.0828V26.3094C159.772 28.3313 157.965 29.751 155.47 29.751C153.921 29.751 152.243 28.9767 152.243 27.2558C152.243 25.621 153.577 24.7176 155.986 24.7176H157.062C157.707 24.7176 158.008 24.4164 158.008 23.8141V23.0828H155.771C152.114 23.0828 150.049 24.6315 150.049 27.2988C150.049 29.3208 151.598 31.5579 155.083 31.5579C156.976 31.5579 158.567 30.8266 159.729 29.4499V30.3533C159.729 30.9556 160.03 31.2138 160.676 31.2138H161.88V23.0398C161.837 19.6411 159.815 17.7051 156.158 17.7051Z" fill="white"/>
<path d="M101.995 17.7051C99.9297 17.7051 98.467 18.2214 97.1764 18.7807L97.0903 18.8667L97.1333 18.9528C97.1333 18.9528 97.3484 19.5551 97.5205 19.9853C97.6926 20.4155 98.2089 20.4585 98.596 20.2864C99.7146 19.8562 100.704 19.6411 101.823 19.6411C104.275 19.6411 105.651 20.8887 105.651 23.1258V26.3094C105.651 28.3313 103.845 29.751 101.349 29.751C99.8006 29.751 98.1658 28.9767 98.1658 27.2558C98.1658 25.621 99.4995 24.7176 101.866 24.7176H102.941C103.586 24.7176 103.888 24.4164 103.888 23.8141V23.0828H101.694C98.0368 23.0828 95.9287 24.6315 95.9287 27.2988C95.9287 29.3208 97.4775 31.5579 100.919 31.5579C102.812 31.5579 104.404 30.8266 105.608 29.4499V30.3533C105.608 30.9556 105.91 31.2138 106.512 31.2138H107.717V23.0398C107.673 19.6411 105.651 17.7051 101.995 17.7051Z" fill="white"/>
<path d="M221.077 22.6956C220.776 22.4375 208.515 13.8763 207.956 13.5321L207.783 13.403V15.5111C207.783 16.1994 208.128 16.4145 208.558 16.7587L208.644 16.8017C209.246 17.2319 217.979 23.2979 219.141 24.1153C217.979 24.9327 209.117 31.0847 208.558 31.4289C207.869 31.8591 207.826 32.1602 207.826 32.7625V34.7845C207.826 34.7845 220.862 25.7071 221.12 25.492C221.722 25.0617 221.851 24.5025 221.851 24.1583V23.9002C221.851 23.47 221.593 23.0398 221.077 22.6956Z" fill="white"/>
<path d="M213.419 25.0617C213.763 25.0617 214.108 24.9326 214.452 24.6745C214.882 24.3734 215.269 24.1153 215.269 24.1153L215.398 24.0292L215.269 23.9432C215.226 23.9001 209.504 19.9422 208.902 19.555C208.644 19.3399 208.3 19.2969 208.085 19.426C207.87 19.555 207.698 19.7701 207.698 20.1143V21.4479L207.741 21.491C207.784 21.534 211.698 24.2443 212.473 24.7606C212.817 24.9757 213.118 25.0617 213.419 25.0617Z" fill="white"/>
<path d="M30.9669 28.2023C30.4937 27.729 29.8914 28.0302 29.6333 28.2453C28.6438 29.1487 27.5253 29.5789 26.3207 29.5789C23.6964 29.5789 21.6314 27.3849 21.6314 24.5455C21.6314 21.7491 23.6534 19.555 26.1916 19.555C27.6543 19.555 28.6008 20.2003 29.3752 20.8026C29.9344 21.2759 30.4077 21.3189 30.7949 20.8887C31.139 20.5445 31.5262 20.1143 31.5262 20.1143L31.6123 20.0283L31.5262 19.9422C30.0205 18.3074 28.3427 17.5761 26.1916 17.5761C22.3627 17.5761 19.3082 20.6306 19.3082 24.5455C19.3082 28.3743 22.4057 31.5149 26.1916 31.5149C28.988 31.5149 30.5797 30.0952 31.6123 28.8906H31.6983L31.6123 28.8046C31.6123 28.8046 31.3971 28.6325 30.9669 28.2023Z" fill="white"/>
<path d="M45.25 13.0589H43.7443V14.5646C43.7443 14.9518 43.9164 15.425 44.6908 15.425H46.1965V14.0914C46.2395 13.4891 45.8523 13.0589 45.25 13.0589Z" fill="white"/>
<path d="M45.0778 17.9203H43.8302V30.3533C43.8302 30.8696 44.1744 31.2138 44.6476 31.2568V31.2998H46.0243V18.8237C46.0673 18.2644 45.7231 17.9203 45.0778 17.9203Z" fill="white"/>
<path d="M59.2318 18.6516C59.0597 19.1248 55.7901 27.0407 55.1448 28.5034C54.5425 26.9977 51.2729 19.0818 51.1008 18.6516C50.8857 18.1353 50.4555 17.8342 49.8962 17.8342H48.3474L48.4335 17.9632C48.4765 18.1353 53.682 30.1382 53.8971 30.6114C54.1123 31.1707 54.4564 31.2998 55.0157 31.2998H55.2738C55.7901 31.2998 56.1342 31.0847 56.3493 30.6114C56.5644 30.1382 61.77 18.2214 61.813 18.0923L61.8991 17.9202H60.3933C59.834 17.9202 59.4469 18.1353 59.2318 18.6516Z" fill="white"/>
<path d="M72.6975 23.8141H67.5779C67.0187 23.8141 66.6745 24.1583 66.6745 24.7175V25.578H66.8036C69.2558 25.5349 72.0952 25.5349 73.2567 25.5349C73.9451 25.5349 74.4613 25.3629 74.8485 24.9757C75.1927 24.5885 75.3648 23.9862 75.3217 23.2979C74.9345 19.8562 72.4824 17.6191 69.1267 17.6191C65.4699 17.6191 62.6736 20.6305 62.6736 24.5885C62.6736 28.5894 65.556 31.5579 69.3848 31.5579C71.6219 31.5579 73.2998 30.7835 74.8915 29.0627L74.9776 28.9766L74.8915 28.8906C74.8915 28.8906 74.5904 28.6325 74.2462 28.3313C73.73 27.9011 73.2567 28.0732 72.9986 28.3313C72.0521 29.1917 70.8906 29.6219 69.4709 29.6219C67.0187 29.6219 65.2118 27.8581 64.9107 25.2338C64.9107 25.2338 64.8676 24.9327 64.8676 24.5455C64.8676 24.1153 64.9107 23.8141 64.9107 23.8141C65.1688 21.2328 66.8896 19.426 69.0837 19.426C71.2778 19.426 72.8695 20.8887 73.0846 23.1258C73.1277 23.3409 73.0846 23.513 73.0416 23.599C72.9126 23.7711 72.8265 23.8141 72.6975 23.8141Z" fill="white"/>
<path d="M10.8332 13.7472C10.575 13.2309 10.2739 13.0589 9.71463 13.0589H9.19837C8.76816 13.0589 8.38098 13.317 8.16587 13.7042C7.99379 14.0914 0.422083 30.9556 0.336041 31.1277L0.25 31.2998H1.66969C2.27199 31.2998 2.65918 31.0416 2.96032 30.4394C3.21845 29.9231 4.46606 27.0837 4.68117 26.6105H10.2309C10.9192 26.6105 11.3494 26.1803 11.3494 25.535V24.5885H5.54159L9.4565 15.8122C10.2739 17.6191 15.7376 30.0952 15.9957 30.6114C16.3399 31.2998 17.1573 31.2998 17.4154 31.2998H18.706L18.62 31.1277C18.62 30.9556 11.0913 14.3065 10.8332 13.7472Z" fill="white"/>
<path d="M40.6468 29.3638C40.4317 29.2348 40.1305 29.1917 39.8294 29.2778C39.3562 29.4068 39.012 29.4929 38.5818 29.4929C37.2051 29.4929 36.4738 28.8045 36.4738 27.3848V19.8562H40.6468V18.9527C40.6468 18.2644 40.0445 17.9202 39.5282 17.9202H36.4307V14.1344C36.4307 13.5321 36.0005 13.1019 35.3552 13.1019H34.2797V27.686C34.2797 30.1382 35.6133 31.5149 38.1085 31.5149C39.055 31.5149 40.1305 31.2998 40.8189 30.9556L40.8619 30.9126V30.8696C40.8619 30.8696 40.9049 30.4824 40.9049 30.0091C40.9479 29.665 40.7759 29.4929 40.6468 29.3638Z" fill="white"/>
</g>
<defs>
<clipPath id="clip0_129_1306">
<rect width="222.188" height="45" fill="white" transform="translate(0.25)"/>
</clipPath>
</defs>
</svg>
