<svg width="168" height="45" viewBox="0 0 168 45" fill="none" xmlns="http://www.w3.org/2000/svg">
<g clip-path="url(#clip0_129_1294)">
<path d="M6.79475 20.6564C6.73419 20.5772 6.65422 20.5149 6.56255 20.4756C6.47088 20.4363 6.37063 20.4213 6.27148 20.4321C6.17233 20.4429 6.07763 20.479 5.99654 20.5371C5.91546 20.5952 5.85072 20.6732 5.80859 20.7636L0.811578 30.7545C0.766056 30.8456 0.744563 30.9467 0.749139 31.0484C0.753716 31.1501 0.78421 31.249 0.837727 31.3356C0.891243 31.4222 0.966006 31.4936 1.05492 31.5432C1.14383 31.5928 1.24393 31.6188 1.34573 31.6188H8.30382C8.41526 31.6214 8.52506 31.5916 8.61988 31.533C8.7147 31.4744 8.79047 31.3895 8.83798 31.2887C10.3389 28.1871 9.4293 23.4712 6.79475 20.6564Z" fill="white"/>
<path d="M10.4596 11.5695C9.21453 13.4854 8.48892 15.692 8.35404 17.9729C8.21916 20.2538 8.67963 22.5306 9.69027 24.5798L13.0448 31.289C13.0944 31.3882 13.1707 31.4716 13.265 31.5299C13.3594 31.5882 13.4681 31.6191 13.579 31.6191H20.5358C20.6376 31.6191 20.7377 31.5931 20.8266 31.5435C20.9156 31.4939 20.9903 31.4225 21.0438 31.3359C21.0974 31.2493 21.1278 31.1504 21.1324 31.0487C21.137 30.947 21.1155 30.8459 21.07 30.7548C21.07 30.7548 11.7107 12.034 11.4755 11.5658C11.429 11.4705 11.3565 11.3902 11.2665 11.3342C11.1764 11.2781 11.0724 11.2486 10.9664 11.249C10.8603 11.2494 10.7565 11.2797 10.6669 11.3364C10.5773 11.3931 10.5054 11.4739 10.4596 11.5695Z" fill="white"/>
<path d="M92.0599 19.5802C92.0599 22.0542 93.2076 24.0184 97.6967 24.8855C100.375 25.4478 100.936 25.8801 100.936 26.7729C100.936 27.64 100.374 28.2014 98.4873 28.2014C96.2073 28.1604 93.9729 27.5558 91.9834 26.4415V30.4711C93.3353 31.1342 95.1205 31.8739 98.4364 31.8739C103.129 31.8739 104.992 29.781 104.992 26.6707L92.0599 19.5802ZM104.992 26.6707C104.992 23.7376 103.436 22.36 99.0486 21.4166C96.6256 20.8809 96.0389 20.3455 96.0389 19.5802C96.0389 18.6119 96.9061 18.203 98.5129 18.203C100.451 18.203 102.364 18.7896 104.175 19.6058V15.7543C102.439 14.964 100.548 14.5718 98.6404 14.6066C94.3043 14.6066 92.0599 16.494 92.0599 19.5802" fill="white"/>
<path d="M152.353 14.8613V31.6188H155.924V18.8403L157.429 22.2324L162.479 31.6188H166.968V14.8613H163.397V25.676L162.045 22.5385L157.99 14.8613H152.353Z" fill="white"/>
<path d="M129.642 14.8613H125.74V31.6188H129.642V14.8613Z" fill="white"/>
<path d="M121.237 26.6707C121.237 23.7376 119.681 22.36 115.294 21.4166C112.871 20.8809 112.285 20.3455 112.285 19.5802C112.285 18.6119 113.152 18.203 114.759 18.203C116.697 18.203 118.61 18.7896 120.421 19.6058V15.7543C118.685 14.964 116.793 14.5718 114.886 14.6066C110.55 14.6066 108.306 16.494 108.306 19.5802C108.306 22.0542 109.453 24.0184 113.942 24.8855C116.621 25.4478 117.182 25.8801 117.182 26.7729C117.182 27.64 116.619 28.2014 114.733 28.2014C112.453 28.1604 110.219 27.5558 108.229 26.4415V30.4711C109.581 31.1342 111.366 31.8739 114.682 31.8739C119.375 31.8739 121.237 29.781 121.237 26.6707Z" fill="white"/>
<path d="M61.7437 14.8613V31.6188H69.7647L71.0277 27.9969H65.6714V14.8613H61.7437Z" fill="white"/>
<path d="M45.8975 14.8613V18.483H50.2335V31.6188H54.1613V18.483H58.8034V14.8613H45.8975Z" fill="white"/>
<path d="M40.2016 14.8613H35.054L29.2104 31.6188H33.673L34.5014 28.7966C36.5417 29.3956 38.7111 29.3956 40.7513 28.7966L41.5798 31.6188H46.0432L40.2016 14.8613ZM37.6276 25.7747C36.9007 25.7746 36.1775 25.6706 35.4801 25.4657L37.6276 18.1528L39.7752 25.4682C39.0776 25.6722 38.3544 25.7754 37.6276 25.7747Z" fill="white"/>
<path d="M83.5938 14.8613H78.4466L72.603 31.6188H77.0665L77.8949 28.7966C79.9352 29.3956 82.1046 29.3956 84.1449 28.7966L84.9733 31.6188H89.4368L83.5938 14.8613ZM81.0202 25.7747C80.2933 25.7746 79.5701 25.6706 78.8726 25.4657L81.0202 18.1528L83.1678 25.4682C82.4702 25.6722 81.747 25.7754 81.0202 25.7747Z" fill="white"/>
<path d="M143.705 14.8613H138.557L132.714 31.6188H137.177L138.006 28.7966C140.046 29.3956 142.215 29.3956 144.256 28.7966L145.084 31.6188H149.548L143.705 14.8613ZM141.129 25.7747C140.403 25.7746 139.679 25.6706 138.982 25.4657L141.129 18.1528L143.277 25.4682C142.579 25.6722 141.856 25.7754 141.129 25.7747Z" fill="white"/>
</g>
<defs>
<clipPath id="clip0_129_1294">
<rect width="166.875" height="45" fill="white" transform="translate(0.75)"/>
</clipPath>
</defs>
</svg>
