<svg width="93" height="45" viewBox="0 0 93 45" fill="none" xmlns="http://www.w3.org/2000/svg">
<g clip-path="url(#clip0_129_1281)">
<path d="M81.7289 12.5678C76.1033 12.5678 71.5255 17.1706 71.5255 22.829C71.5255 28.4874 76.1033 33.0902 81.7289 33.0902C87.3532 33.0902 91.9297 28.4874 91.9297 22.829C91.9297 17.1706 87.3532 12.5678 81.7289 12.5678ZM81.7289 28.2272C78.7703 28.2272 76.3607 25.8029 76.3607 22.829C76.3607 19.8539 78.7703 17.4309 81.7289 17.4309C84.6849 17.4309 87.0959 19.8539 87.0959 22.829C87.0959 25.8042 84.6862 28.2272 81.7276 28.2272H81.7289ZM51.6835 20.7509L49.8994 19.8552C49.1247 19.4694 48.6391 19.1708 48.4438 18.9502C48.2576 18.7547 48.1517 18.4963 48.1469 18.2262C48.1469 17.8801 48.3026 17.5881 48.6088 17.3609C48.9123 17.1231 49.3438 17.0148 49.8915 17.0148C50.8931 17.0148 52.0029 17.6198 53.2248 18.8392L56.2362 15.8099C55.4963 14.8011 54.5287 13.9818 53.4122 13.4186C52.3105 12.8637 51.0931 12.5776 49.8598 12.5837C48.0215 12.5837 46.504 13.1267 45.3216 14.2206C44.1405 15.3145 43.5467 16.629 43.5467 18.1707C43.5467 20.562 45.1104 22.5542 48.2485 24.1356L49.8915 24.9613C51.3074 25.6787 52.0121 26.4093 52.0121 27.165C52.0121 27.5745 51.8155 27.9286 51.4249 28.243C51.0343 28.5588 50.517 28.708 49.8756 28.708C49.2818 28.708 48.6008 28.5033 47.8341 28.0871C47.0702 27.6777 46.3905 27.1272 45.8309 26.4648L42.8354 29.7465C44.5245 31.9659 46.7771 33.0836 49.6091 33.0836C51.7376 33.0836 53.436 32.501 54.6949 31.3437C55.9618 30.1877 56.5952 28.7398 56.5952 27.0078C56.5952 25.7091 56.2442 24.569 55.5474 23.6006C54.844 22.6322 53.5534 21.6889 51.6835 20.7522V20.7509ZM21.39 30.8549V12.9761H16.547V14.173C14.9151 13.1229 13.0156 12.5657 11.0758 12.5678C5.45149 12.5678 0.875 17.1706 0.875 22.829C0.875 28.4874 5.45149 33.0902 11.0771 33.0902C12.9937 33.0931 14.8716 32.5501 16.4915 31.5247C16.4915 31.6819 16.4836 31.8233 16.4836 31.9184C16.4836 34.8922 14.074 37.3165 11.1167 37.3165C10.1111 37.3142 9.12671 37.0275 8.27682 36.4895L5.88169 40.7078C7.46104 41.6723 9.2746 42.1841 11.1246 42.1875C16.7502 42.1875 21.39 37.5834 21.39 31.925C21.39 31.7057 21.4045 31.0597 21.39 30.8549ZM11.0771 28.2258C8.12111 28.2258 5.71014 25.8029 5.71014 22.829C5.71014 19.8539 8.11979 17.4309 11.0771 17.4309C14.0344 17.4309 16.444 19.8539 16.444 22.829C16.444 25.8029 14.0344 28.2272 11.0771 28.2272V28.2258ZM40.6817 12.9695H35.8149V22.7247C35.8228 24.1105 35.8228 26.5031 34.8067 27.5256C34.3211 28.0131 33.7893 28.4544 32.6702 28.4544C31.5433 28.4544 31.0115 28.0131 30.5272 27.5256C29.5097 26.5018 29.5176 24.1026 29.5242 22.7247V12.9695H24.6587V22.6956C24.6429 24.7011 24.6192 28.424 27.0605 30.8945C28.4923 32.3425 30.1986 33.0823 32.6623 33.0823C35.1274 33.0823 36.8324 32.3504 38.2642 30.8945C40.7055 28.424 40.6817 24.6931 40.6659 22.6956L40.6817 12.9681V12.9695ZM68.2607 27.3539C67.8701 27.6525 66.9226 28.3144 65.8511 28.1651C64.9749 28.0462 64.2636 27.4015 64.154 25.2454V17.1561H69.8733V12.9536H64.154V7.5H59.3031V8.57011H59.2952V24.6086C59.2952 27.1584 59.9365 33.0823 65.8432 33.0823C68.8321 33.0361 70.6466 31.4071 71.4068 30.7703L71.5084 30.6911L68.5973 27.087C68.5893 27.0936 68.3861 27.2588 68.2607 27.3539Z" fill="white"/>
</g>
<defs>
<clipPath id="clip0_129_1281">
<rect width="91.875" height="45" fill="white" transform="translate(0.875)"/>
</clipPath>
</defs>
</svg>
