<svg width="24" height="24" viewBox="0 0 24 24" fill="none" xmlns="http://www.w3.org/2000/svg">
<path d="M20.6798 7.18116C20.6887 7.38357 20.6887 7.57677 20.6887 7.77917C20.6976 13.9156 16.1891 20.9996 7.94437 20.9996C5.51264 20.9996 3.1253 20.2728 1.0752 18.9112C1.43019 18.9572 1.78519 18.9756 2.14018 18.9756C4.15478 18.9756 6.11614 18.2764 7.70474 16.9792C5.78777 16.9424 4.10154 15.6452 3.51579 13.75C4.19028 13.888 4.88253 13.8604 5.53927 13.6672C3.45367 13.244 1.95381 11.3396 1.94494 9.12237C1.94494 9.10397 1.94494 9.08557 1.94494 9.06717C2.56618 9.42597 3.2673 9.62837 3.97729 9.64677C2.01593 8.28517 1.40357 5.57116 2.5928 3.44595C4.87365 6.35316 8.22836 8.11037 11.8316 8.30357C11.4677 6.69356 11.9647 5.00076 13.1273 3.85995C14.9289 2.10275 17.7689 2.19475 19.4729 4.06236C20.4757 3.85995 21.4431 3.47355 22.3217 2.93075C21.9845 4.00715 21.2833 4.91796 20.3515 5.49756C21.239 5.38716 22.1087 5.13876 22.9252 4.77076C22.3217 5.70916 21.5585 6.51876 20.6798 7.18116Z" fill="white"/>
</svg>
