<svg width="62" height="60" viewBox="0 0 62 60" fill="none" xmlns="http://www.w3.org/2000/svg">
<g clip-path="url(#clip0_133_2903)">
<path fill-rule="evenodd" clip-rule="evenodd" d="M61.0214 42.1035C61.0214 48.7242 55.6421 53.8966 49.2283 53.8966C44.6766 53.8966 40.6421 51.3104 38.6766 47.3793H23.2628C21.1938 51.4138 17.1593 53.8966 12.7111 53.8966C6.09038 53.8966 0.917969 48.6207 0.917969 42.1035C0.917969 39 2.15935 36.1035 4.22831 34.0345C0.400727 27.9311 2.88349 19.9655 9.40073 17.069C13.5387 15.3104 18.1938 16.0345 21.6076 18.9311L35.8835 12.7242C36.0904 8.27589 38.6766 4.24141 42.8145 2.48279C48.8145 -0.103416 55.6421 2.58624 58.2283 8.58624C60.918 14.4828 58.1249 21.4138 52.2283 24C48.1938 25.7587 43.3318 25.0345 40.0214 22.2414L25.849 28.4483C25.7456 31.3449 24.6076 34.0345 22.5387 36.1035C22.849 36.4138 22.9524 36.7242 23.1593 37.0345H38.5731C40.5387 33 44.5731 30.4138 49.1249 30.4138C55.5387 30.4138 61.0214 35.5862 61.0214 42.1035ZM6.29728 32.4828C10.9525 29.3793 17.1593 30 20.9869 34.0345C22.4352 32.2759 23.4697 29.8966 23.3662 27.6207C23.2628 27.1035 23.5731 26.5862 24.0904 26.3793L39.6076 19.4483C40.1249 19.2414 40.6421 19.3449 41.0559 19.7587C45.8145 24.3104 53.5731 22.5518 55.9524 16.4483C57.7111 11.7931 55.4352 6.62072 50.78 4.6552C44.78 2.27589 38.1593 6.93107 38.3662 13.4483C38.4697 13.9655 38.1593 14.4828 37.6421 14.6897L21.918 21.7242C21.4007 21.9311 20.8835 21.8276 20.4697 21.4138C17.8835 18.8276 13.9525 18 10.5387 19.5518C5.46969 21.7242 3.50418 27.6207 6.29728 32.4828ZM58.3318 42.1035C58.3318 37.0345 54.1938 33 49.2283 33C45.4007 33 42.0904 35.2759 40.7456 38.6897C40.5387 39.2069 40.0214 39.5173 39.5042 39.5173H22.2283C21.6076 39.5173 21.1938 39.2069 20.9869 38.6897C19.6421 35.2759 16.4352 33 12.6076 33C7.43521 33 3.40073 37.0345 3.40073 42.1035C3.40073 47.2759 7.53866 51.3104 12.6076 51.3104C16.3318 51.3104 19.6421 49.0345 20.9869 45.6207C21.1938 45.1035 21.7111 44.7931 22.2283 44.7931H39.4007C40.0214 44.7931 40.4352 45.1035 40.6421 45.6207C41.9869 49.138 45.2973 51.3104 49.1249 51.3104C54.0904 51.3104 58.3318 47.2759 58.3318 42.1035Z" fill="black"/>
<path fill-rule="evenodd" clip-rule="evenodd" d="M10.0215 6.41384C10.0215 3.82763 12.0904 1.75867 14.5732 1.75867C17.056 1.75867 19.1249 3.82763 19.1249 6.41384C19.1249 8.8966 17.056 10.9656 14.5732 10.9656C12.0904 10.9656 10.0215 8.8966 10.0215 6.41384ZM12.6077 6.41384C12.6077 7.44832 13.4353 8.37936 14.5732 8.37936C15.7111 8.37936 16.5387 7.55177 16.5387 6.41384C16.5387 5.17246 15.6077 4.34487 14.5732 4.34487C13.4353 4.34487 12.6077 5.27591 12.6077 6.41384Z" fill="black"/>
<path fill-rule="evenodd" clip-rule="evenodd" d="M33.5046 55.2413C33.5046 57.5172 31.746 59.2758 29.5736 59.2758C27.4012 59.2758 25.6426 57.5172 25.6426 55.2413C25.6426 53.0689 27.4012 51.3103 29.5736 51.3103C31.6426 51.3103 33.5046 53.0689 33.5046 55.2413ZM30.9184 55.1379C30.9184 54.4138 30.2977 53.7931 29.5736 53.7931C28.8495 53.7931 28.2288 54.4138 28.2288 55.1379C28.2288 55.862 28.8495 56.5862 29.5736 56.5862C30.1943 56.5862 30.815 55.9655 30.9184 55.1379Z" fill="black"/>
<path d="M23.0557 9.62073C23.7798 9.62073 24.4005 10.2414 24.4005 10.9656C24.4005 11.6897 23.7798 12.3104 23.0557 12.3104C22.2281 12.3104 21.6074 11.6897 21.6074 10.9656C21.6074 10.2414 22.2281 9.62073 23.0557 9.62073Z" fill="black"/>
<path d="M58.2286 22.6553C59.0562 22.6553 59.5734 23.276 59.5734 24.0001C59.5734 24.7242 59.0562 25.3449 58.2286 25.3449C57.5045 25.3449 56.8838 24.7242 56.8838 24.0001C56.8838 23.276 57.5045 22.6553 58.2286 22.6553Z" fill="black"/>
<path d="M38.6769 27.8276C39.401 27.8276 40.0217 28.4483 40.0217 29.1725C40.0217 30.0001 39.401 30.5173 38.6769 30.5173C37.9527 30.5173 37.332 30.0001 37.332 29.1725C37.332 28.4483 37.9527 27.8276 38.6769 27.8276Z" fill="black"/>
<path d="M37.4347 51.3103C38.1588 51.3103 38.7795 51.931 38.7795 52.6551C38.7795 53.3793 38.1588 54 37.4347 54C36.6071 54 36.0898 53.3793 36.0898 52.6551C36.0898 51.931 36.6071 51.3103 37.4347 51.3103Z" fill="black"/>
<path d="M58.2286 0.413818C59.0562 0.413818 59.5734 1.03451 59.5734 1.75865C59.5734 2.48278 59.0562 3.10347 58.2286 3.10347C57.5045 3.10347 56.8838 2.48278 56.8838 1.75865C56.8838 1.03451 57.5045 0.413818 58.2286 0.413818Z" fill="black"/>
<path d="M54.2973 42.207C53.5732 42.207 52.9525 42.8277 52.9525 43.6553C52.9525 45.1036 51.8146 46.2415 50.3663 46.2415C49.6422 46.2415 49.0215 46.8622 49.0215 47.5863C49.0215 48.3105 49.6422 48.9312 50.3663 48.9312C53.2629 48.9312 55.5387 46.6553 55.5387 43.7588C55.6422 42.7243 55.0215 42.207 54.2973 42.207Z" fill="black"/>
</g>
<defs>
<clipPath id="clip0_133_2903">
<rect width="61.0345" height="60" fill="white" transform="translate(0.60791)"/>
</clipPath>
</defs>
</svg>
